<svg width="102" height="98" viewBox="0 0 102 98" fill="none" xmlns="http://www.w3.org/2000/svg">
<path d="M94.5 78.47C109.625 55.7995 101.039 21.1866 76 16.0447C45.706 11.7675 23.2437 22.1226 11.5 32.0447C-2.15057 43.578 -0.643994 56.6025 4.5 70.0447C9.644 83.4868 28.5 93.0447 43 96.0448C62.5 100.079 85.1095 92.5448 94.5 78.47Z" fill="#DDECF2"/>
<path d="M72.7952 18.5971L69.8698 19.381C69.5064 19.4784 69.3335 19.7778 69.4309 20.1412C69.5283 20.5046 69.8278 20.6775 70.1911 20.5801L72.517 19.9569L78.2913 41.5071L66.2878 34.5768C65.9883 34.4039 65.6249 34.5013 65.452 34.8008L59.9185 44.3851C59.7456 44.6846 59.8429 45.048 60.1424 45.2209C60.3037 45.314 60.4273 45.3393 60.609 45.2906C60.7907 45.2419 60.8851 45.1582 60.9782 44.997L66.2058 35.9425L78.6701 43.1387C78.6931 43.152 78.7162 43.1653 78.7392 43.1786L81.5485 53.663L27.5276 68.1379L23.9393 54.7462L29.0206 45.9452L43.1897 54.1257C43.3509 54.2188 43.4745 54.2441 43.6562 54.1954C43.8379 54.1467 43.9323 54.063 44.0254 53.9017C44.1984 53.6022 44.101 53.2389 43.8015 53.0659L29.3097 44.6993C29.2539 44.6363 29.2029 44.5916 29.1338 44.5517C28.9726 44.4586 28.7944 44.4479 28.6309 44.4917C28.4674 44.5355 28.3185 44.6338 28.2254 44.7951C28.1855 44.8642 28.1686 44.9466 28.1469 45.0109L23.4912 53.0747L18.4958 34.4319L65.0123 21.9678C65.3757 21.8704 65.5486 21.5709 65.4512 21.2076C65.3539 20.8442 65.0544 20.6713 64.691 20.7686L17.5752 33.3933C17.2118 33.4907 17.0389 33.7902 17.1362 34.1535L26.4892 69.0592C26.5865 69.4226 26.886 69.5955 27.2494 69.4981L82.4513 54.7068C82.742 54.6289 82.973 54.2554 82.8902 53.9466L73.5373 19.0409C73.4399 18.6775 73.1407 18.5046 72.7952 18.5971Z" fill="#5494AB"/>
<path d="M81.456 0.696405L23.274 16.2862C21.7294 16.7001 20.896 17.8776 21.266 19.2587L23.6128 28.0168L15.0909 30.3002C13.6556 30.685 12.8307 32.1134 13.2154 33.549L23.3814 71.489C23.766 72.9244 25.1946 73.7492 26.6299 73.3646L84.8665 57.7602C86.3018 57.3756 87.1811 55.9324 86.742 54.5116L84.478 46.0622L92.9272 43.7982C94.4171 43.399 95.1299 41.5525 94.8339 40.2298L84.6679 2.28968C84.3307 0.958472 83.0004 0.282593 81.456 0.696405ZM85.5608 54.8279C85.7701 55.6092 85.3263 56.3512 84.5632 56.5557L26.3267 72.1601C25.5454 72.3695 24.8033 71.9257 24.5989 71.1626L14.4328 33.2225C14.2235 32.4413 14.6673 31.6992 15.4304 31.4947L73.667 15.8903C74.4482 15.6809 75.1903 16.1247 75.3948 16.8878L85.5608 54.8279V54.8279ZM92.6786 42.5796L84.1567 44.863L83.5335 42.5372L90.4929 40.6724C90.8562 40.5751 91.0294 40.2755 90.9863 39.8976L81.6333 4.99194C81.536 4.62856 81.2365 4.45565 80.8731 4.55302L77.9477 5.33688C77.5843 5.43425 77.4114 5.73373 77.5088 6.09711C77.6061 6.4605 77.9056 6.6334 78.269 6.53603L80.5948 5.91283L89.6264 39.6191L83.1937 41.3427L76.5576 16.5762C76.173 15.1409 74.7444 14.3161 73.309 14.7007L28.2281 26.7801L26.5192 20.4024L73.0357 7.9383C73.3991 7.84093 73.572 7.54144 73.4746 7.17806C73.3772 6.81468 73.0778 6.64177 72.7144 6.73914L25.5983 19.3639C25.2349 19.4612 25.062 19.7607 25.1594 20.1241L27.0241 27.0835L24.7528 27.6921L22.406 18.9337C22.1967 18.1525 22.9001 17.6524 23.5541 17.4772L81.7362 1.88734C82.3903 1.71208 83.2348 1.73893 83.4588 2.57471L93.6297 40.533L93.666 40.5232C93.8754 41.3047 93.4599 42.3702 92.6786 42.5796Z" fill="#5494AB"/>
<path d="M65.6155 49.9476L41.839 36.2203C41.6777 36.1272 41.4996 36.1165 41.3359 36.1603C41.1724 36.2042 41.0234 36.3025 40.9303 36.4637L35.4367 45.979C35.2638 46.2785 35.3612 46.6419 35.6607 46.8148C35.8219 46.9079 35.9455 46.9332 36.1272 46.8845C36.3089 46.8358 36.4033 46.7521 36.4964 46.5908L41.7106 37.5596L65.0033 51.0077C65.1645 51.1008 65.2881 51.1261 65.4698 51.0774C65.597 51.0433 65.7459 50.945 65.839 50.7837C66.0125 50.4838 65.9152 50.1207 65.6155 49.9476Z" fill="#5494AB"/>
<path d="M57.5975 31.7255C57.2342 31.8228 57.0613 32.1223 57.1586 32.4857C57.4946 33.7396 56.7644 35.0842 55.456 35.4347C54.2021 35.7707 52.8575 35.0405 52.5069 33.7321C52.171 32.4782 52.9012 31.1336 54.2096 30.7831C54.7365 30.6419 55.1884 30.6571 55.6842 30.8358C56.0382 30.9941 56.387 30.8422 56.4859 30.4847C56.6442 30.1307 56.4923 29.7817 56.1348 29.683C55.4232 29.4258 54.6513 29.3792 53.9425 29.5691C51.98 30.095 50.8495 32.0534 51.3753 34.0156C51.9012 35.9781 53.8596 37.1086 55.8218 36.5828C57.7841 36.057 58.9232 34.0574 58.3575 32.1642C58.2604 31.801 57.9607 31.6281 57.5975 31.7255Z" fill="#5494AB"/>
</svg>
