<svg width="111" height="103" viewBox="0 0 111 103" fill="none" xmlns="http://www.w3.org/2000/svg">
<path d="M-0.00016375 62.4453C-0.000160051 104.76 40.103 106.08 59.9998 100.5C89.0236 92.3613 106.137 81.8383 110 59.629C114.832 31.8459 92.1323 15.6289 50.9348 15.6289C9.73731 15.629 -0.000165637 40.8589 -0.00016375 62.4453Z" fill="#E7ECF2"/>
<path d="M79.7469 33.3585C79.7469 33.3016 79.7469 33.3016 79.7469 33.2448V32.6761C79.7469 32.0505 79.235 31.5385 78.6093 31.5385H74.0593C73.4338 31.5385 72.9217 32.0504 72.9217 32.6761V33.2448H67.1205L65.073 28.638C64.3337 27.0456 62.343 25.8512 60.523 25.8512H59.8405V24.0312C62.1156 23.5193 63.8218 21.4718 63.8218 19.0261V18.4573H65.5281C67.1206 18.4573 68.3717 17.206 68.3717 15.6136V3.10098C68.3719 1.50859 67.1206 0.257324 65.5282 0.257324H41.6407C40.0483 0.257324 38.7971 1.50859 38.7971 3.10098V15.6135C38.7971 17.2059 40.0483 18.4571 41.6407 18.4571H43.347V19.0258C43.347 21.4714 45.0534 23.519 47.3283 24.0309V25.8509H46.5889C44.8258 25.8509 42.8353 27.1022 42.0389 28.6945L39.9915 33.2445H38.2283V31.5382C38.2283 31.1969 38.0007 30.9695 37.6596 30.9695H28.5596C28.2184 30.9695 27.9909 31.1971 27.9909 31.5382V33.2445C25.7728 33.4152 24.0096 35.292 24.0096 37.5669V68.7343C24.0096 71.123 25.9433 72.9998 28.2752 72.9998H78.8369C81.2256 72.9998 83.1025 71.0661 83.1025 68.7343V37.567C83.1593 35.4628 81.6806 33.7566 79.7469 33.3585ZM78.6093 32.6759V33.2447H74.0593V32.6759H78.6093ZM41.6407 17.3198C40.6739 17.3198 39.9344 16.5804 39.9344 15.6135V3.10098C39.9344 2.13415 40.6737 1.39464 41.6407 1.39464H65.5282C66.4951 1.39464 67.2346 2.13401 67.2346 3.10098V15.6135C67.2346 16.5803 66.4952 17.3198 65.5282 17.3198H41.6407ZM44.4844 19.026V18.4573H62.6843V19.026C62.6843 21.2441 60.9211 23.0072 58.703 23.0072H48.4655C46.2475 23.0072 44.4844 21.2441 44.4844 19.026ZM48.4656 24.1448H58.7032V25.8512H48.4656V24.1448ZM46.5888 26.9885H60.58C61.2056 26.9885 61.8881 27.2161 62.4568 27.5572H44.712C45.3375 27.216 45.9632 26.9885 46.5888 26.9885ZM29.1282 32.1072H37.0907V33.2448H29.1282V32.1072ZM39.9344 71.9196H28.2752C26.8533 71.9196 25.6589 70.9526 25.2608 69.6445H39.5363C39.7069 69.6445 39.9344 69.8152 39.9344 70.0426V71.9196ZM82.0221 68.7915H82.0218C82.0218 70.5547 80.5999 71.9196 78.8937 71.9196H72.9219V40.6384C72.9219 40.2972 72.6943 40.0697 72.3531 40.0697C72.012 40.0697 71.7844 40.2973 71.7844 40.6384V71.9196H41.072V70.0428C41.072 69.2464 40.3894 68.5072 39.5364 68.5072H25.147V37.5673C25.147 35.861 26.5689 34.3823 28.275 34.3823H28.5595H37.6595H40.4463C40.6739 34.3823 40.9013 34.2686 40.9582 34.041L43.1194 29.1498C43.1763 28.9791 43.2901 28.8085 43.4039 28.6947H63.7651C63.8787 28.8653 63.9927 28.9791 64.0495 29.1498L66.2108 34.041C66.3244 34.2686 66.4952 34.3823 66.7227 34.3823H71.7845V36.0886C71.7845 36.4299 72.0121 36.6573 72.3533 36.6573C72.6944 36.6573 72.922 36.4297 72.922 36.0886V34.3823H74.0596H78.6096H78.894C80.6004 34.3823 82.0221 35.861 82.0221 37.5673V68.7915Z" fill="#9BA7B7"/>
<path d="M60.4093 29.8315H46.7594C46.4181 29.8315 46.1907 30.0591 46.1907 30.4003V32.6753C46.1907 33.0165 46.4183 33.2441 46.7594 33.2441H60.4093C60.7506 33.2441 60.9781 33.0165 60.9781 32.6753V30.4003C60.9781 30.059 60.7505 29.8315 60.4093 29.8315ZM59.8408 32.1066H47.3283V30.969H59.8408V32.1066Z" fill="#9BA7B7"/>
<path d="M64.9595 3.10107H42.2096C41.8683 3.10107 41.6409 3.32868 41.6409 3.6698V15.0448C41.6409 15.3861 41.8685 15.6136 42.2096 15.6136H64.9595C65.3006 15.6136 65.5282 15.386 65.5282 15.0448V3.6698C65.5282 3.32854 65.3006 3.10107 64.9595 3.10107ZM64.3908 5.94487H63.2532C62.9119 5.94487 62.6845 6.17233 62.6845 6.5136C62.6845 6.85486 62.9121 7.08233 63.2532 7.08233H64.3908V8.78866H63.2532C62.9119 8.78866 62.6845 9.01612 62.6845 9.35739C62.6845 9.69866 62.9121 9.92612 63.2532 9.92612H64.3908V11.6325H63.2532C62.9119 11.6325 62.6845 11.8599 62.6845 12.2012C62.6845 12.5424 62.9121 12.7699 63.2532 12.7699H64.3908V14.4762H42.7783V12.7699H58.7033C59.0446 12.7699 59.2721 12.5424 59.2721 12.2012C59.2721 11.8599 59.0445 11.6325 58.7033 11.6325H42.7783V9.92612H58.7033C59.0446 9.92612 59.2721 9.69866 59.2721 9.35739C59.2721 9.01612 59.0445 8.78866 58.7033 8.78866H42.7783V7.08233H58.7033C59.0446 7.08233 59.2721 6.85486 59.2721 6.5136C59.2721 6.17233 59.0445 5.94487 58.7033 5.94487H42.7783V4.23853H64.3908V5.94487Z" fill="#9BA7B7"/>
<path d="M53.755 36.6577C44.7687 36.6577 37.4888 43.9377 37.4888 52.924C37.4888 61.9103 44.7687 69.1903 53.755 69.1903C62.7414 69.1903 70.0782 61.9103 70.0782 52.924C70.0782 43.9377 62.7412 36.6577 53.755 36.6577ZM53.755 68.1095C45.3944 68.1095 38.6264 61.3414 38.6264 52.9808C38.6264 44.6202 45.4513 37.7953 53.755 37.7953C62.1156 37.7953 68.9406 44.6204 68.9406 52.924C68.9406 61.2276 62.1155 68.1095 53.755 68.1095Z" fill="#9BA7B7"/>
<path d="M65.3006 44.9047C65.13 44.6203 64.7887 44.5634 64.5043 44.791C64.22 44.9047 64.1631 45.2461 64.3336 45.5304C65.8692 47.6917 66.6655 50.194 66.6655 52.8672C66.6655 59.9197 60.9211 65.664 53.8687 65.664C46.8164 65.664 41.072 59.9196 41.072 52.8672C41.072 45.8148 46.8164 40.0704 53.8687 40.0704C56.7124 40.0704 59.3856 40.9804 61.6606 42.6868C61.8882 42.8574 62.2862 42.8574 62.457 42.5731C62.6276 42.3455 62.6276 41.9475 62.3433 41.7768C59.8977 39.9568 56.997 38.9331 53.8689 38.9331C46.1908 38.9331 39.9913 45.1894 39.9913 52.8675C39.9913 60.5456 46.2477 66.8019 53.9257 66.8019C61.6038 66.8019 67.8033 60.5456 67.8033 52.8675C67.8031 49.9667 66.95 47.2367 65.3006 44.9047Z" fill="#9BA7B7"/>
<path d="M30.3225 36.2937C28.592 36.2937 27.1719 37.7137 27.1719 39.4443C27.1719 41.1748 28.5919 42.5949 30.3225 42.5949C32.0529 42.5949 33.4731 41.1749 33.4731 39.4443C33.4731 37.7137 32.0532 36.2937 30.3225 36.2937ZM30.3225 40.9573C29.4937 40.9573 28.8093 40.2729 28.8093 39.4442C28.8093 38.6154 29.4937 37.931 30.3225 37.931C31.1513 37.931 31.8357 38.6154 31.8357 39.4442C31.8357 40.2731 31.1514 40.9573 30.3225 40.9573Z" fill="#9BA7B7" stroke="#9BA7B7" stroke-width="0.5"/>
<path d="M35.0195 42.4128C34.022 42.4128 33.2908 43.2135 33.2908 44.1416C33.2908 45.076 34.0852 45.8703 35.0195 45.8703C36.017 45.8703 36.7482 45.0696 36.7482 44.1416C36.7482 43.2135 36.017 42.4128 35.0195 42.4128Z" fill="#9BA7B7" stroke="#9BA7B7" stroke-width="0.5"/>
<path d="M60.2869 49.2753L60.2868 49.2753C60.8745 50.3336 61.2282 51.5694 61.2281 52.8659L60.2869 49.2753ZM60.2869 49.2753L60.2826 49.2681M60.2869 49.2753L60.2826 49.2681M60.2826 49.2681C60.0317 48.8498 59.5434 48.7914 59.1791 48.937L59.1605 48.9444M60.2826 49.2681L59.1605 48.9444M59.1605 48.9444L59.1433 48.9547M59.1605 48.9444L59.1433 48.9547M59.1433 48.9547C58.7606 49.1843 58.5784 49.6704 58.8279 50.0908C59.32 50.9664 59.5906 51.8905 59.5906 52.9229C59.5906 56.0828 57.0305 58.6436 53.8709 58.6448C50.707 58.5891 48.1469 56.0252 48.1469 52.8661C48.1469 49.7054 50.7081 47.1443 53.8687 47.1443C55.0135 47.1443 56.1028 47.4708 57.0856 48.126L57.0855 48.1262M59.1433 48.9547L57.0855 48.1262M57.0855 48.1262L57.0957 48.1324M57.0855 48.1262L57.0957 48.1324M57.0957 48.1324C57.4789 48.3623 57.9819 48.2973 58.2349 47.8761M57.0957 48.1324L58.2349 47.8761M58.2349 47.8761C58.4642 47.4945 58.4004 46.994 57.9841 46.74M58.2349 47.8761L57.9841 46.74M57.9841 46.74C56.7484 45.9174 55.3366 45.5066 53.8687 45.5066C49.8062 45.5066 46.5094 48.8036 46.5094 52.8659C46.5094 56.9283 49.8062 60.2253 53.8687 60.2253C57.9312 60.2253 61.2281 56.9284 61.2281 52.866L57.9841 46.74Z" fill="#9BA7B7" stroke="#9BA7B7" stroke-width="0.5"/>
</svg>
