<svg width="106" height="88" viewBox="0 0 106 88" fill="none" xmlns="http://www.w3.org/2000/svg">
<path d="M100.594 64.2659C115.72 41.5954 93.8988 15.5332 68.8602 10.3913C38.5662 6.11413 24.9942 6.72233 13.2505 16.6445C-0.400111 28.1778 -8.0266 58.2993 13.2505 76.374C34.5276 94.4487 82.0867 92.006 100.594 64.2659Z" fill="#DDECF2"/>
<path fill-rule="evenodd" clip-rule="evenodd" d="M79.2035 12.1649H77.9205V0.51001C77.9205 0.231765 77.6886 0 77.4105 0H27.2513C26.9731 0 26.7413 0.231892 26.7413 0.51001V12.1649H25.5047C22.4595 12.1649 20.1564 14.5145 20.1564 17.6213V52.0758C20.1564 55.2601 22.5058 57.7487 25.5047 57.7487H79.2035C82.2949 57.7487 85 55.0901 85 52.0758V17.6213C85 14.669 82.3414 12.1649 79.2035 12.1649ZM79.2035 13.1696H77.9204V17.0494L81.8002 13.9115C81.0429 13.4478 80.1464 13.1696 79.2035 13.1696ZM27.7614 1.02015V17.7295C27.7614 17.7759 27.746 17.8377 27.7305 17.8842L36.9587 25.3344L43.2807 30.4353L44.5017 31.4093L52.354 37.7467L60.1754 31.4093L61.4276 30.4044L67.8114 25.2416L69.0635 24.2216L76.9158 17.8687C76.9004 17.8378 76.9004 17.7915 76.9004 17.7451V1.02015H27.7614ZM26.7413 13.1697H25.4893C24.5153 13.1697 23.6189 13.4789 22.9079 14.0043L26.7413 17.0958V13.1697ZM83.9953 52.0758H84.0108V17.6214C84.0108 16.4466 83.4697 15.3491 82.635 14.5454L62.1848 31.1C62.1075 31.2546 61.9838 31.3628 61.8138 31.3937L52.6785 38.7823C52.5858 38.8596 52.462 38.8905 52.3539 38.8905C52.2303 38.8905 52.122 38.8596 52.0293 38.7823L22.1658 14.6997C21.5319 15.4725 21.1609 16.4927 21.1609 17.6211V52.0756C21.1609 53.235 21.5475 54.2861 22.1658 55.0899L44.61 36.9277C44.8265 36.7576 45.1511 36.7885 45.321 37.0049C45.4911 37.2214 45.4602 37.546 45.2438 37.7159L22.877 55.8164C23.6035 56.4038 24.5155 56.7439 25.5047 56.7439H79.2036C80.1927 56.7439 81.1357 56.4193 81.9085 55.8784L59.4644 37.7158C59.2481 37.5457 59.2172 37.2213 59.3871 37.0048C59.5572 36.7885 59.8817 36.7576 60.0981 36.9276L82.6813 55.2137C83.4853 54.3634 83.9953 53.2505 83.9953 52.0758Z" fill="#5494AB"/>
<path d="M60.4646 10.4727C60.0264 10.0346 58.2739 9.42117 56.5214 10.4727C54.3307 11.7871 54.3307 13.5396 52.14 13.5396C49.9494 13.5396 49.5112 10.0346 45.5681 10.0346C41.6249 10.0346 39.8723 15.2922 43.3774 19.6735C46.1815 23.1785 50.3875 26.0994 52.14 27.1217C54.6228 25.6613 59.5883 21.6889 61.3408 19.2354C63.0934 16.7818 63.3854 14.5619 63.0934 13.5396" stroke="#5494AB" stroke-linecap="round"/>
<path d="M42.5011 23.6163C46.4443 27.5595 49.6574 29.4581 52.1401 31.0646C52.1401 31.0646 58.8372 27.5595 62.2171 23.6163C65.597 19.6731 69.4905 13.5386 63.5316 8.28134C59.5592 4.7767 53.8927 7.84378 52.1401 10.4726C49.8034 8.13589 45.5122 4.3111 40.7487 8.28129C35.4911 12.6633 38.5579 19.6731 42.5011 23.6163Z" stroke="#5494AB" stroke-linecap="round" stroke-linejoin="round"/>
</svg>
