<svg width="107" height="88" viewBox="0 0 107 88" fill="none" xmlns="http://www.w3.org/2000/svg">
<path d="M101.4 64.2659C116.526 41.5954 94.7046 15.5332 69.6661 10.3913C39.372 6.11413 25.8 6.72233 14.0563 16.6445C0.405736 28.1778 -7.22075 58.2993 14.0563 76.374C35.3334 94.4487 82.8925 92.006 101.4 64.2659Z" fill="#E7ECF2"/>
<path fill-rule="evenodd" clip-rule="evenodd" d="M80.0468 12.1649H78.7639V0.51001C78.7639 0.231765 78.532 0 78.2539 0H28.0947C27.8164 0 27.5847 0.231892 27.5847 0.51001V12.1649H26.3481C23.3028 12.1649 20.9998 14.5145 20.9998 17.6213V52.0758C20.9998 55.2601 23.3492 57.7487 26.3481 57.7487H80.0468C83.1383 57.7487 85.8434 55.0901 85.8434 52.0758V17.6213C85.8434 14.669 83.1848 12.1649 80.0468 12.1649ZM80.0468 13.1696H78.7638V17.0494L82.6436 13.9115C81.8863 13.4478 80.9897 13.1696 80.0468 13.1696ZM28.6048 1.02015V17.7295C28.6048 17.7759 28.5894 17.8377 28.5739 17.8842L37.8021 25.3344L44.1241 30.4353L45.3451 31.4093L53.1974 37.7467L61.0188 31.4093L62.271 30.4044L68.6548 25.2416L69.9069 24.2216L77.7592 17.8687C77.7438 17.8378 77.7438 17.7915 77.7438 17.7451V1.02015H28.6048ZM27.5847 13.1697H26.3326C25.3587 13.1697 24.4623 13.4789 23.7513 14.0043L27.5847 17.0958V13.1697ZM84.8387 52.0758H84.8541V17.6214C84.8541 16.4466 84.3131 15.3491 83.4784 14.5454L63.0282 31.1C62.9509 31.2546 62.8272 31.3628 62.6572 31.3937L53.5219 38.7823C53.4292 38.8596 53.3054 38.8905 53.1973 38.8905C53.0737 38.8905 52.9654 38.8596 52.8727 38.7823L23.0091 14.6997C22.3753 15.4725 22.0043 16.4927 22.0043 17.6211V52.0756C22.0043 53.235 22.3909 54.2861 23.0091 55.0899L45.4534 36.9277C45.6698 36.7576 45.9944 36.7885 46.1644 37.0049C46.3345 37.2214 46.3036 37.546 46.0871 37.7159L23.7204 55.8164C24.4469 56.4038 25.3588 56.7439 26.3481 56.7439H80.047C81.0361 56.7439 81.9791 56.4193 82.7519 55.8784L60.3078 37.7158C60.0915 37.5457 60.0606 37.2213 60.2305 37.0048C60.4006 36.7885 60.7251 36.7576 60.9415 36.9276L83.5247 55.2137C84.3287 54.3634 84.8387 53.2505 84.8387 52.0758Z" fill="#9BA7B7"/>
<path d="M52.8209 27.9171L52.9474 27.9909L53.0737 27.9167L53.3261 27.7682C54.6165 27.0091 56.5138 25.6226 58.3015 24.126C60.0796 22.6375 61.8219 20.9803 62.7569 19.6713C63.6835 18.3741 64.2358 17.1222 64.5158 16.0383C64.7913 14.9718 64.8155 14.0166 64.6203 13.3336C64.5065 12.9353 64.0914 12.7047 63.6931 12.8185C63.2948 12.9323 63.0642 13.3474 63.178 13.7456C63.275 14.0849 63.2991 14.7509 63.0635 15.6632C62.8323 16.5582 62.3623 17.6431 61.5363 18.7994C60.7188 19.9439 59.1021 21.4996 57.3387 22.9758C55.762 24.2957 54.1252 25.5047 52.9434 26.2453C51.0587 25.0835 47.3077 22.3784 44.7689 19.2049C43.1445 17.1745 42.7863 15.0055 43.2105 13.4029C43.6314 11.8129 44.7981 10.7845 46.3739 10.7845C48.0615 10.7845 48.9766 11.5073 49.7867 12.3174C49.8964 12.4271 50.0084 12.5433 50.1241 12.6633L50.1304 12.6699C50.4278 12.9786 50.7503 13.3132 51.0808 13.5776C51.572 13.9706 52.171 14.2896 52.9458 14.2896C53.6011 14.2896 54.1372 14.1566 54.6029 13.9052C55.057 13.6599 55.3988 13.3255 55.6915 13.0035C55.8032 12.8806 55.911 12.7564 56.0173 12.634L56.0182 12.6329C56.4768 12.1047 56.9272 11.5873 57.713 11.1158C58.4324 10.6842 59.1412 10.5983 59.7114 10.6597C60.0102 10.6919 60.2546 10.7622 60.434 10.835C60.6212 10.911 60.7191 10.9821 60.74 11.003C61.0329 11.2959 61.5078 11.2959 61.8007 11.003C62.0936 10.7101 62.0936 10.2352 61.8007 9.94233C61.4187 9.5603 60.684 9.2558 59.872 9.16835C59.0183 9.07642 57.9745 9.20961 56.9413 9.82954C55.9354 10.4331 55.3264 11.1378 54.8611 11.6761L54.8575 11.6802C54.759 11.7942 54.6686 11.8988 54.5815 11.9945C54.3264 12.2752 54.1205 12.4609 53.8902 12.5853C53.6712 12.7035 53.3859 12.7896 52.9458 12.7896C52.6251 12.7896 52.3478 12.6703 52.0178 12.4063C51.7683 12.2067 51.5373 11.9674 51.2539 11.6732L51.2534 11.6726C51.1287 11.5431 50.9946 11.404 50.8474 11.2567C49.9051 10.3145 48.6296 9.28454 46.3739 9.28454C44.0056 9.28454 42.3251 10.886 41.7604 13.0191C41.1988 15.1407 41.7169 17.7911 43.5976 20.142C46.4807 23.7459 50.7721 26.722 52.5679 27.7695L52.8209 27.9171Z" fill="#9BA7B7" stroke="#9BA7B7" stroke-width="0.5"/>
<path d="M57.5883 6.36016C55.6719 6.95092 53.9518 8.11907 52.8696 9.34844C51.736 8.26756 50.2134 6.99615 48.4289 6.31158C47.3537 5.89911 46.1666 5.69256 44.9062 5.87812C43.6432 6.06406 42.3565 6.63644 41.0743 7.70513C38.1902 10.1089 37.5982 13.262 38.2472 16.2714C38.8876 19.2407 40.7318 22.1019 42.7766 24.1466C46.3841 27.7541 49.4003 29.6842 51.7731 31.2026L51.7741 31.2033C52.0371 31.3716 52.2918 31.5346 52.5385 31.6942C52.7624 31.8391 53.046 31.854 53.2836 31.7343C53.2902 31.7311 53.2944 31.7288 53.2955 31.7281L53.2958 31.7279L53.2998 31.7259L53.3002 31.7257L53.5152 31.6131L53.5141 31.6111C53.5404 31.5968 53.569 31.5813 53.5996 31.5646C53.7935 31.4588 54.0729 31.3039 54.4182 31.1059C55.1084 30.7102 56.0639 30.1413 57.127 29.4471C59.2389 28.068 61.8311 26.1591 63.5923 24.1044C65.2975 22.1151 67.2162 19.483 67.9111 16.6184C68.2621 15.1714 68.3049 13.6493 67.8385 12.1218C67.3718 10.5931 66.4105 9.11018 64.8336 7.7189C62.5981 5.74659 59.8934 5.64957 57.5883 6.36016ZM52.7244 31.1805L52.7549 31.2388L52.9459 31.0646L52.7244 31.1805ZM42.0346 8.85739C43.1341 7.941 44.1702 7.50264 45.1246 7.36213C46.0816 7.22124 47.0065 7.37254 47.8916 7.71207C49.6894 8.4017 51.2487 9.83595 52.4156 11.0029C52.5745 11.1618 52.7962 11.2411 53.0198 11.2189C53.2434 11.1968 53.4453 11.0755 53.57 10.8886C54.3398 9.73379 56.0436 8.406 58.0302 7.7936C59.9891 7.18973 62.1041 7.31115 63.8412 8.84371C65.2437 10.0811 66.0304 11.3364 66.4039 12.5598C66.7778 13.7844 66.7533 15.0281 66.4533 16.2648C65.8462 18.7675 64.1282 21.1743 62.4535 23.1282C60.8348 25.0167 58.3885 26.8319 56.3069 28.1912C55.2732 28.8661 54.3432 29.4199 53.6722 29.8046C53.392 29.9652 53.1573 30.0962 52.9794 30.194C52.8498 30.1108 52.7186 30.0268 52.5857 29.9417L52.5839 29.9406C50.225 28.4308 47.3268 26.5755 43.8372 23.086C41.9388 21.1876 40.278 18.5722 39.7135 15.9552C39.1578 13.3787 39.661 10.8358 42.0346 8.85739Z" fill="#9BA7B7" stroke="#9BA7B7" stroke-width="0.5"/>
</svg>
