<svg width="111" height="103" viewBox="0 0 111 103" fill="none" xmlns="http://www.w3.org/2000/svg">
<path d="M4.09637e-06 62.4453C7.79566e-06 104.76 40.1032 106.08 60 100.5C89.0238 92.3613 106.137 81.8383 110 59.629C114.832 31.8459 92.1325 15.6289 50.935 15.6289C9.73748 15.629 2.20923e-06 40.8589 4.09637e-06 62.4453Z" fill="#DDECF2"/>
<path d="M53.7552 36.6575C44.7689 36.6575 37.4889 43.9374 37.4889 52.9237C37.4889 61.9101 44.7689 69.19 53.7552 69.19C62.7415 69.19 70.0783 61.9101 70.0783 52.9237C70.0783 43.9374 62.7414 36.6575 53.7552 36.6575ZM53.7552 68.1093C45.3946 68.1093 38.6265 61.3412 38.6265 52.9806C38.6265 44.62 45.4514 37.7951 53.7552 37.7951C62.1158 37.7951 68.9407 44.6201 68.9407 52.9237C68.9407 61.2274 62.1157 68.1093 53.7552 68.1093Z" fill="#5494AB"/>
<path d="M79.747 33.3587C79.747 33.3019 79.747 33.3019 79.747 33.2451V32.6763C79.747 32.0508 79.2351 31.5387 78.6094 31.5387H74.0594C73.4339 31.5387 72.9218 32.0506 72.9218 32.6763V33.2451H67.1206L65.0731 28.6382C64.3338 27.0459 62.3431 25.8514 60.5231 25.8514H59.8406V24.0314C62.1157 23.5195 63.8219 21.4721 63.8219 19.0264V18.4575H65.5282C67.1207 18.4575 68.3718 17.2062 68.3718 15.6139V3.10122C68.372 1.50883 67.1207 0.257568 65.5283 0.257568H41.6408C40.0484 0.257568 38.7972 1.50883 38.7972 3.10122V15.6137C38.7972 17.2061 40.0484 18.4574 41.6408 18.4574H43.3471V19.0261C43.3471 21.4716 45.0535 23.5192 47.3284 24.0311V25.8511H46.589C44.8259 25.8511 42.8354 27.1024 42.0391 28.6948L39.9916 33.2448H38.2284V31.5384C38.2284 31.1972 38.0008 30.9697 37.6597 30.9697H28.5597C28.2185 30.9697 27.991 31.1973 27.991 31.5384V33.2448C25.7729 33.4154 24.0098 35.2922 24.0098 37.5671V68.7345C24.0098 71.1232 25.9434 73 28.2753 73H78.837C81.2257 73 83.1026 71.0664 83.1026 68.7345V37.5673C83.1594 35.463 81.6807 33.7568 79.747 33.3587ZM78.6094 32.6762V33.2449H74.0594V32.6762H78.6094ZM41.6408 17.32C40.674 17.32 39.9345 16.5807 39.9345 15.6137V3.10122C39.9345 2.13439 40.6738 1.39489 41.6408 1.39489H65.5283C66.4952 1.39489 67.2347 2.13425 67.2347 3.10122V15.6137C67.2347 16.5805 66.4953 17.32 65.5283 17.32H41.6408V17.32ZM44.4845 19.0262V18.4575H62.6844V19.0262C62.6844 21.2443 60.9212 23.0075 58.7031 23.0075H48.4656C46.2476 23.0075 44.4845 21.2443 44.4845 19.0262ZM48.4657 24.1451H58.7033V25.8514H48.4657V24.1451V24.1451ZM46.5889 26.9887H60.5801C61.2057 26.9887 61.8882 27.2163 62.4569 27.5575H44.7121C45.3376 27.2162 45.9633 26.9887 46.5889 26.9887ZM29.1283 32.1075H37.0908V33.2451H29.1283V32.1075ZM39.9345 71.9198H28.2753C26.8534 71.9198 25.659 70.9529 25.2609 69.6448H39.5364C39.707 69.6448 39.9345 69.8154 39.9345 70.0429V71.9198ZM82.0222 68.7918H82.0219C82.0219 70.5549 80.6 71.9198 78.8939 71.9198H72.922V40.6387C72.922 40.2974 72.6944 40.07 72.3532 40.07C72.0121 40.07 71.7845 40.2976 71.7845 40.6387V71.9198H41.0721V70.043C41.0721 69.2467 40.3896 68.5075 39.5365 68.5075H25.1471V37.5676C25.1471 35.8612 26.569 34.3825 28.2752 34.3825H28.5596H37.6596H40.4464C40.674 34.3825 40.9015 34.2689 40.9583 34.0412L43.1195 29.15C43.1764 28.9794 43.2902 28.8087 43.404 28.6949H63.7652C63.8788 28.8656 63.9928 28.9794 64.0496 29.15L66.2109 34.0412C66.3245 34.2689 66.4953 34.3825 66.7228 34.3825H71.7847V36.0888C71.7847 36.4301 72.0123 36.6576 72.3534 36.6576C72.6945 36.6576 72.9221 36.43 72.9221 36.0888V34.3825H74.0597H78.6097H78.8941C80.6005 34.3825 82.0222 35.8612 82.0222 37.5676V68.7918Z" fill="#5494AB"/>
<path d="M60.4095 29.8325H46.7595C46.4183 29.8325 46.1908 30.0601 46.1908 30.4013V32.6763C46.1908 33.0174 46.4184 33.245 46.7595 33.245H60.4095C60.7507 33.245 60.9782 33.0174 60.9782 32.6763V30.4013C60.9782 30.06 60.7506 29.8325 60.4095 29.8325ZM59.8409 32.1076H47.3284V30.97H59.8409V32.1076Z" fill="#5494AB"/>
<path d="M30.3226 36.5437C28.7302 36.5437 27.422 37.8518 27.422 39.4443C27.422 41.0367 28.7301 42.3449 30.3226 42.3449C31.915 42.3449 33.2232 41.0369 33.2232 39.4443C33.2232 37.8518 31.9153 36.5437 30.3226 36.5437ZM30.3226 41.2073C29.3558 41.2073 28.5594 40.411 28.5594 39.4442C28.5594 38.4774 29.3558 37.681 30.3226 37.681C31.2894 37.681 32.0858 38.4774 32.0858 39.4442C32.0858 40.4112 31.2896 41.2073 30.3226 41.2073Z" fill="#5494AB"/>
<path d="M34.0196 41.6624C33.1664 41.6624 32.5408 42.3447 32.5408 43.1411C32.5408 43.9374 33.2234 44.6198 34.0196 44.6198C34.8727 44.6198 35.4983 43.9374 35.4983 43.1411C35.4983 42.3447 34.8727 41.6624 34.0196 41.6624ZM34.0196 43.5392C33.7921 43.5392 33.6783 43.3685 33.6783 43.1979C33.6783 43.0273 33.8489 42.8566 34.0196 42.8566C34.1902 42.8566 34.3608 43.0273 34.3608 43.1979C34.3608 43.3685 34.247 43.5392 34.0196 43.5392Z" fill="#5494AB"/>
<path d="M65.3007 44.9042C65.1301 44.6198 64.7888 44.5629 64.5044 44.7906C64.2201 44.9042 64.1633 45.2456 64.3338 45.5299C65.8693 47.6912 66.6656 50.1936 66.6656 52.8667C66.6656 59.9192 60.9212 65.6635 53.8689 65.6635C46.8165 65.6635 41.0721 59.9191 41.0721 52.8667C41.0721 45.8144 46.8165 40.0699 53.8689 40.0699C56.7125 40.0699 59.3857 40.9799 61.6607 42.6863C61.8883 42.8569 62.2863 42.8569 62.4571 42.5726C62.6277 42.345 62.6277 41.947 62.3434 41.7763C59.8979 39.9563 56.9971 38.9326 53.869 38.9326C46.1909 38.9326 39.9914 45.1889 39.9914 52.867C39.9914 60.5451 46.2478 66.8014 53.9258 66.8014C61.6039 66.8014 67.8034 60.5451 67.8034 52.867C67.8032 49.9662 66.9501 47.2362 65.3007 44.9042Z" fill="#5494AB"/>
<path d="M64.9596 3.10107H42.2097C41.8684 3.10107 41.641 3.32868 41.641 3.6698V15.0448C41.641 15.3861 41.8686 15.6136 42.2097 15.6136H64.9596C65.3007 15.6136 65.5283 15.386 65.5283 15.0448V3.6698C65.5283 3.32854 65.3007 3.10107 64.9596 3.10107ZM64.3909 5.94487H63.2533C62.912 5.94487 62.6845 6.17233 62.6845 6.5136C62.6845 6.85486 62.9121 7.08233 63.2533 7.08233H64.3909V8.78866H63.2533C62.912 8.78866 62.6845 9.01612 62.6845 9.35739C62.6845 9.69866 62.9121 9.92612 63.2533 9.92612H64.3909V11.6325H63.2533C62.912 11.6325 62.6845 11.8599 62.6845 12.2012C62.6845 12.5424 62.9121 12.7699 63.2533 12.7699H64.3909V14.4762H42.7784V12.7699H58.7034C59.0447 12.7699 59.2722 12.5424 59.2722 12.2012C59.2722 11.8599 59.0445 11.6325 58.7034 11.6325H42.7784V9.92612H58.7034C59.0447 9.92612 59.2722 9.69866 59.2722 9.35739C59.2722 9.01612 59.0445 8.78866 58.7034 8.78866H42.7784V7.08233H58.7034C59.0447 7.08233 59.2722 6.85486 59.2722 6.5136C59.2722 6.17233 59.0445 5.94487 58.7034 5.94487H42.7784V4.23853H64.3909V5.94487Z" fill="#5494AB"/>
<path d="M60.0683 49.3975C59.8977 49.113 59.5564 49.0562 59.272 49.1698C58.9876 49.3405 58.8739 49.6817 59.0444 49.9662C59.5563 50.8762 59.8407 51.843 59.8407 52.9236C59.8407 56.2224 57.1676 58.8955 53.8689 58.8955C50.5701 58.8387 47.897 56.1655 47.897 52.8668C47.897 49.5681 50.5701 46.8951 53.8689 46.8951C55.0633 46.8951 56.2008 47.2363 57.2244 47.9187C57.5088 48.0894 57.85 48.0324 58.0207 47.7481C58.1915 47.4638 58.1344 47.1225 57.8501 46.9518C56.6557 46.1554 55.2908 45.7573 53.8689 45.7573C49.9444 45.7573 46.7595 48.9424 46.7595 52.8667C46.7595 56.7909 49.9444 59.976 53.8689 59.976C57.7933 59.976 60.9782 56.7911 60.9782 52.8667C60.9783 51.6155 60.6369 50.4213 60.0683 49.3975Z" fill="#5494AB"/>
</svg>
