<svg width="102" height="105" viewBox="0 0 102 105" fill="none" xmlns="http://www.w3.org/2000/svg">
<path d="M93.8971 85.4211C109.023 62.7507 100.436 28.1377 75.3972 22.9958C45.1031 18.7187 22.6409 29.0737 10.8972 38.9959C-2.75341 50.5292 -1.24684 63.5537 3.89716 76.9958C9.04115 90.438 27.8972 99.9959 42.3972 102.996C61.8972 107.031 84.5067 99.496 93.8971 85.4211Z" fill="#E7ECF2"/>
<path d="M36.9861 39.8749L37.2097 39.9953L36.9861 39.8749L31.8464 49.4582C31.6234 49.8741 31.7719 50.3934 32.1872 50.6503C32.2828 50.7094 32.3844 50.7589 32.5001 50.7817C32.6184 50.805 32.7323 50.7967 32.8487 50.7677C32.965 50.7388 33.0683 50.693 33.1584 50.6178C33.2466 50.5443 33.3083 50.4541 33.3596 50.3585L38.1144 41.4927L61.3155 55.8443C61.411 55.9034 61.5126 55.9529 61.6283 55.9757C61.7466 55.999 61.8606 55.9907 61.9769 55.9617C62.1683 55.9141 62.3686 55.7747 62.4877 55.5527C62.7115 55.1364 62.563 54.6171 62.1474 54.36L38.2299 39.5653C38.0014 39.4239 37.7521 39.4022 37.5326 39.4568C37.3133 39.5114 37.1088 39.6462 36.9861 39.8749Z" fill="#9BA7B7" stroke="#9BA7B7" stroke-width="0.5"/>
<path d="M74.864 46.1042L74.8396 46.0052L74.7522 45.95L62.5267 38.2291C62.097 37.9578 61.5724 38.0909 61.3415 38.5299L56.0955 48.5033C55.8718 48.9288 56.02 49.4586 56.4364 49.7216C56.5327 49.7824 56.6351 49.8333 56.7519 49.8568C56.8715 49.8809 56.9869 49.8724 57.1049 49.8424C57.2229 49.8125 57.3275 49.7652 57.4186 49.6876C57.5077 49.6119 57.5699 49.5192 57.6216 49.4208L57.3982 49.3029L57.6216 49.4208L62.4533 40.235L74.9168 48.1062L75.4388 48.4358L75.2929 47.8441L74.864 46.1042ZM25.5406 49.6443L39.7405 58.612L39.8726 58.4038L39.7405 58.612C39.8368 58.6728 39.9392 58.7237 40.056 58.7472C40.1756 58.7713 40.291 58.7628 40.409 58.7328C40.527 58.7029 40.6316 58.6556 40.7227 58.578C40.8117 58.5023 40.874 58.4096 40.9257 58.3112L40.7023 58.1933L40.9257 58.3112C41.1495 57.8858 41.0012 57.3559 40.5848 57.0929L25.8572 47.7921C25.7954 47.7229 25.73 47.6639 25.6445 47.6099C25.4146 47.4647 25.1625 47.4417 24.9399 47.4982C24.7173 47.5547 24.5107 47.6941 24.3871 47.929L24.61 48.0466L24.3871 47.929C24.3563 47.9876 24.3378 48.0466 24.3254 48.0917C24.3163 48.1248 24.3122 48.1415 24.3089 48.1553C24.3071 48.1628 24.3055 48.1694 24.3034 48.1774L19.9014 56.5462L19.8565 56.6316L19.8828 56.7256L20.3823 58.5099L20.5543 59.1242L20.8477 58.5664L25.5406 49.6443Z" fill="#9BA7B7" stroke="#9BA7B7" stroke-width="0.5"/>
<path d="M53.8663 35.5448C53.6312 35.6033 53.4416 35.7382 53.3345 35.9376C53.2284 36.1352 53.2171 36.3701 53.2844 36.6053C53.6197 37.7764 52.9984 38.9744 51.8748 39.2538C50.7972 39.5218 49.5862 38.8313 49.2371 37.6117C48.9019 36.4405 49.5232 35.2426 50.6468 34.9632C51.1067 34.8488 51.494 34.8739 51.9314 35.0472C52.1615 35.1565 52.4089 35.1738 52.623 35.0822C52.836 34.9911 52.9848 34.8056 53.0462 34.5698C53.2256 34.1055 53.0178 33.5936 52.5164 33.4301C51.7667 33.1316 50.955 33.0548 50.2102 33.24C48.1507 33.7521 47.0394 35.8554 47.6493 37.9864C48.2593 40.1176 50.347 41.4251 52.4063 40.913C54.463 40.4016 55.5865 38.2577 54.9362 36.1907C54.8687 35.957 54.7338 35.76 54.5371 35.6385C54.3377 35.5153 54.1013 35.4864 53.8663 35.5448Z" fill="#9BA7B7" stroke="#9BA7B7" stroke-width="0.5"/>
<path d="M65.6452 23.3246L68.5183 22.6086C68.8576 22.524 69.1593 22.711 69.2668 23.0876C69.2668 23.0876 78.7771 57 78.8886 58C79 59 78.8886 60.0998 77.5 60.5L24.6731 73.512C24.3162 73.6009 24.0144 73.414 23.9069 73.0375L15.2341 41C14.5 38.5 14.6497 35.9627 17.2 35.3255C33.4247 31.2718 43.3127 28.8021 60.2648 24.5672C60.6217 24.4783 60.9236 24.6652 61.0311 25.0418C61.1386 25.4183 60.9765 25.7209 60.6196 25.8098C60.6196 25.8098 17.8117 36 17 38C16.1883 40 20.9592 56.4138 20.9592 56.4138L21.454 58.1459L24.9071 72.1222C24.9071 72.1222 76 58.5 76.5 57.5C77 56.5 74.8607 48.0355 74.8607 48.0355L74.791 47.9923L74.3661 46.3034L68.2843 23.9979L66 24.5672C65.6431 24.6562 65.3413 24.4692 65.2337 24.0927C65.1262 23.7162 65.2883 23.4136 65.6452 23.3246Z" fill="#9BA7B7"/>
<path d="M76.4553 4.63421L19.4285 18.8314C17.9146 19.2083 17.1268 20.3895 17.5346 21.8161L20.1207 30.8629L12.5 33C11.0932 33.3505 10.3215 34.789 10.7454 36.2719L21.2166 75.4047C21.6404 76.8873 23.0774 77.7762 24.4843 77.426L81.5646 63.2154C82.9714 62.8652 83.7965 61.4131 83.3192 59.9438L80.8242 51.2159L89.1057 49.1541C90.566 48.7906 91.2142 46.9202 90.8813 45.5556L79.6782 6.36514C79.3043 4.99065 77.969 4.25737 76.4553 4.63421ZM82.1614 60.2318C82.3921 61.0388 81.9761 61.7857 81.2282 61.9719L24.1479 76.1824C23.3821 76.3731 22.6352 75.8956 22.4099 75.1073L11.9387 35.9746C11.708 35.1675 12.124 34.4207 12.872 34.2345L69.2203 19.9662C69.986 19.7756 70.7329 20.2531 70.9583 21.0413L82.1614 60.2318ZM88.8228 47.8977L80.4701 49.9772L79.7833 47.5747L86.6045 45.8765C86.9607 45.7878 87.1227 45.4862 87.0686 45.0976L76.7615 9.04155C76.6542 8.66619 76.3529 8.47984 75.9967 8.56851L73.1294 9.28236C72.7732 9.37103 72.6115 9.67265 72.7188 10.048C72.8261 10.4234 73.1273 10.6097 73.4835 10.521L75.7632 9.95349L85.7161 44.7706L79.4112 46.3403L72.098 20.7576C71.6742 19.2749 70.2371 18.386 68.8303 18.7363L24.6444 29.7366L22.7612 23.1487L68.3541 11.798C68.7103 11.7094 68.872 11.4077 68.7647 11.0324C68.6574 10.657 68.3562 10.4707 68 10.5594L21.8194 22.0563C21.4632 22.145 21.3015 22.4466 21.4088 22.822L23.4638 30.0107L21.2375 30.5649L18.6513 21.518C18.4206 20.711 19.1006 20.22 19.7417 20.0604L76.7685 5.86321C77.4096 5.7036 78.2451 5.75694 78.4919 6.62026L89.7004 45.8295L89.736 45.8206C89.9668 46.6279 89.5886 47.7071 88.8228 47.8977Z" fill="#9BA7B7"/>
</svg>
