<svg width="13" height="18" viewBox="0 0 13 18" fill="none" xmlns="http://www.w3.org/2000/svg">
<path d="M6.5 18L6.1 17.5562C5.85 17.3096 0 10.5041 0 6.41096C0 2.86027 2.9 0 6.5 0C10.1 0 13 2.86027 13 6.41096C13 10.5041 7.15 17.3096 6.9 17.6055L6.5 18ZM6.5 0.986301C3.45 0.986301 1 3.40274 1 6.41096C1 9.56712 5.2 14.8932 6.5 16.4712C7.8 14.8932 12 9.56712 12 6.41096C12 3.40274 9.55 0.986301 6.5 0.986301Z" fill="#4E4E4E"/>
<path d="M6.5 9C5.1 9 4 7.9 4 6.5C4 5.1 5.1 4 6.5 4C7.9 4 9 5.1 9 6.5C9 7.9 7.9 9 6.5 9ZM6.5 5C5.65 5 5 5.65 5 6.5C5 7.35 5.65 8 6.5 8C7.35 8 8 7.35 8 6.5C8 5.65 7.35 5 6.5 5Z" fill="#4E4E4E"/>
</svg>
