<svg width="103" height="52" viewBox="0 0 103 52" fill="none" xmlns="http://www.w3.org/2000/svg">
<path d="M14.2029 25.6096V25.1096C13.936 25.1096 13.7161 25.3193 13.7034 25.5859C13.6908 25.8525 13.8898 26.0821 14.1555 26.1074L14.2029 25.6096ZM32.4761 4.78955C32.4761 4.51341 32.2523 4.28955 31.9761 4.28955C31.7 4.28955 31.4761 4.51341 31.4761 4.78955H32.4761ZM49.7493 25.6096L49.7967 26.1074C50.0625 26.0821 50.2614 25.8525 50.2488 25.5859C50.2361 25.3193 50.0163 25.1096 49.7493 25.1096V25.6096ZM31.4761 48.4609C31.4761 48.7371 31.7 48.9609 31.9761 48.9609C32.2523 48.9609 32.4761 48.7371 32.4761 48.4609H31.4761ZM14.2029 25.6096C14.2029 26.1096 14.203 26.1096 14.2032 26.1096C14.2033 26.1096 14.2035 26.1096 14.2037 26.1096C14.2041 26.1096 14.2047 26.1096 14.2055 26.1096C14.207 26.1096 14.2092 26.1096 14.2119 26.1096C14.2175 26.1096 14.2257 26.1096 14.2363 26.1095C14.2575 26.1094 14.2886 26.1092 14.329 26.1087C14.4099 26.1078 14.5282 26.1061 14.6797 26.1025C14.9825 26.0955 15.4178 26.0814 15.9509 26.0534C17.0164 25.9973 18.476 25.8851 20.0499 25.6603C21.6218 25.4357 23.3201 25.0971 24.8583 24.5843C26.3879 24.0745 27.8062 23.3773 28.775 22.4085L28.0679 21.7014C27.2594 22.51 26.0117 23.1458 24.5421 23.6357C23.0811 24.1227 21.4469 24.4505 19.9085 24.6703C18.3721 24.8898 16.9435 24.9998 15.8984 25.0548C15.3762 25.0823 14.9507 25.096 14.6564 25.1028C14.5093 25.1062 14.3951 25.1079 14.318 25.1088C14.2795 25.1092 14.2503 25.1094 14.2309 25.1095C14.2212 25.1096 14.214 25.1096 14.2093 25.1096C14.207 25.1096 14.2052 25.1096 14.2042 25.1096C14.2036 25.1096 14.2033 25.1096 14.203 25.1096C14.2029 25.1096 14.2029 25.1096 14.2028 25.1096C14.2028 25.1096 14.2029 25.1096 14.2029 25.6096ZM28.775 22.4085C29.7591 21.4244 30.4533 19.7948 30.958 17.9924C31.4678 16.1715 31.8048 14.0954 32.0285 12.1463C32.2525 10.1947 32.3643 8.35699 32.4201 7.00809C32.4481 6.33328 32.4621 5.77992 32.4691 5.39472C32.4726 5.2021 32.4743 5.05148 32.4752 4.94868C32.4757 4.89728 32.4759 4.85784 32.476 4.83107C32.4761 4.81769 32.4761 4.80748 32.4761 4.80053C32.4761 4.79705 32.4761 4.79439 32.4761 4.79256C32.4761 4.79164 32.4761 4.79093 32.4761 4.79043C32.4761 4.79018 32.4761 4.78996 32.4761 4.78983C32.4761 4.78967 32.4761 4.78955 31.9761 4.78955C31.4761 4.78955 31.4761 4.78954 31.4761 4.78958C31.4761 4.78966 31.4761 4.78976 31.4761 4.78992C31.4761 4.79025 31.4761 4.79079 31.4761 4.79154C31.4761 4.79303 31.4761 4.79535 31.4761 4.79848C31.4761 4.80473 31.4761 4.81424 31.476 4.82691C31.4759 4.85225 31.4757 4.89022 31.4753 4.94011C31.4744 5.0399 31.4727 5.18731 31.4692 5.37654C31.4624 5.75503 31.4486 6.3006 31.421 6.96671C31.3658 8.29966 31.2554 10.1118 31.035 12.0323C30.8144 13.9551 30.4849 15.9732 29.995 17.7228C29.4999 19.491 28.8611 20.9082 28.0679 21.7014L28.775 22.4085ZM31.9761 4.78955C31.4761 4.78955 31.4761 4.78967 31.4761 4.78983C31.4761 4.78996 31.4761 4.79018 31.4761 4.79043C31.4761 4.79093 31.4761 4.79164 31.4761 4.79256C31.4761 4.79439 31.4761 4.79705 31.4761 4.80053C31.4761 4.80748 31.4762 4.81769 31.4762 4.83107C31.4763 4.85784 31.4766 4.89728 31.477 4.94868C31.4779 5.05148 31.4796 5.2021 31.4831 5.39472C31.4901 5.77992 31.5041 6.33328 31.5321 7.00809C31.5879 8.35699 31.6997 10.1947 31.9237 12.1463C32.1474 14.0954 32.4844 16.1715 32.9942 17.9924C33.4989 19.7948 34.1931 21.4244 35.1772 22.4085L35.8843 21.7014C35.0911 20.9082 34.4523 19.491 33.9572 17.7228C33.4673 15.9732 33.1378 13.9551 32.9172 12.0323C32.6968 10.1118 32.5864 8.29966 32.5312 6.96671C32.5036 6.3006 32.4898 5.75503 32.483 5.37654C32.4795 5.18731 32.4778 5.0399 32.477 4.94011C32.4765 4.89022 32.4763 4.85225 32.4762 4.82691C32.4762 4.81424 32.4761 4.80473 32.4761 4.79848C32.4761 4.79535 32.4761 4.79303 32.4761 4.79154C32.4761 4.79079 32.4761 4.79025 32.4761 4.78992C32.4761 4.78976 32.4761 4.78966 32.4761 4.78958C32.4761 4.78954 32.4761 4.78955 31.9761 4.78955ZM35.1772 22.4085C36.146 23.3773 37.5643 24.0745 39.0939 24.5843C40.6321 25.0971 42.3304 25.4357 43.9023 25.6603C45.4762 25.8851 46.9358 25.9973 48.0013 26.0534C48.5344 26.0814 48.9697 26.0955 49.2726 26.1025C49.424 26.1061 49.5423 26.1078 49.6232 26.1087C49.6637 26.1092 49.6948 26.1094 49.716 26.1095C49.7266 26.1096 49.7347 26.1096 49.7403 26.1096C49.7431 26.1096 49.7452 26.1096 49.7467 26.1096C49.7475 26.1096 49.7481 26.1096 49.7485 26.1096C49.7487 26.1096 49.7489 26.1096 49.749 26.1096C49.7492 26.1096 49.7493 26.1096 49.7493 25.6096C49.7493 25.1096 49.7494 25.1096 49.7494 25.1096C49.7493 25.1096 49.7493 25.1096 49.7492 25.1096C49.749 25.1096 49.7486 25.1096 49.748 25.1096C49.747 25.1096 49.7453 25.1096 49.7429 25.1096C49.7382 25.1096 49.731 25.1096 49.7213 25.1095C49.7019 25.1094 49.6727 25.1092 49.6342 25.1088C49.5572 25.1079 49.4429 25.1062 49.2958 25.1028C49.0015 25.096 48.576 25.0823 48.0538 25.0548C47.0087 24.9998 45.5801 24.8898 44.0437 24.6703C42.5054 24.4505 40.8711 24.1227 39.4101 23.6357C37.9405 23.1458 36.6929 22.51 35.8843 21.7014L35.1772 22.4085ZM49.7493 25.6096C49.7019 25.1119 49.7018 25.1119 49.7017 25.1119C49.7016 25.1119 49.7014 25.1119 49.7012 25.1119C49.7007 25.112 49.7001 25.112 49.6994 25.1121C49.6979 25.1123 49.6958 25.1125 49.693 25.1127C49.6875 25.1133 49.6794 25.1141 49.6688 25.1151C49.6477 25.1172 49.6167 25.1204 49.5764 25.1246C49.4957 25.1331 49.3776 25.146 49.2264 25.1635C48.9241 25.1987 48.4893 25.2528 47.9568 25.3289C46.8926 25.4809 45.435 25.7211 43.8635 26.0739C42.2938 26.4263 40.6001 26.8933 39.0676 27.5014C37.5434 28.1063 36.1367 28.8668 35.1772 29.8263L35.8843 30.5334C36.7021 29.7156 37.9614 29.0162 39.4364 28.4309C40.9032 27.8489 42.542 27.3955 44.0826 27.0496C45.6214 26.7042 47.052 26.4683 48.0983 26.3188C48.6211 26.2441 49.0472 26.1911 49.3419 26.1569C49.4893 26.1397 49.6038 26.1273 49.681 26.1191C49.7196 26.1151 49.749 26.1121 49.7684 26.1102C49.7782 26.1092 49.7854 26.1085 49.7902 26.108C49.7925 26.1078 49.7943 26.1076 49.7954 26.1075C49.7959 26.1074 49.7963 26.1074 49.7965 26.1074C49.7967 26.1074 49.7967 26.1074 49.7968 26.1074C49.7968 26.1074 49.7967 26.1074 49.7493 25.6096ZM35.1772 29.8263C34.1887 30.8148 33.4957 32.5147 32.9925 34.4075C32.4834 36.3226 32.1468 38.5247 31.9233 40.5999C31.6996 42.6776 31.5879 44.6415 31.532 46.0851C31.5041 46.8072 31.4901 47.4 31.4831 47.8127C31.4796 48.0191 31.4779 48.1805 31.477 48.2907C31.4766 48.3457 31.4763 48.388 31.4762 48.4166C31.4762 48.4309 31.4761 48.4419 31.4761 48.4493C31.4761 48.453 31.4761 48.4558 31.4761 48.4578C31.4761 48.4587 31.4761 48.4595 31.4761 48.46C31.4761 48.4603 31.4761 48.4605 31.4761 48.4606C31.4761 48.4608 31.4761 48.4609 31.9761 48.4609C32.4761 48.4609 32.4761 48.4609 32.4761 48.4609C32.4761 48.4608 32.4761 48.4607 32.4761 48.4605C32.4761 48.4601 32.4761 48.4595 32.4761 48.4587C32.4761 48.4571 32.4761 48.4546 32.4761 48.4512C32.4761 48.4444 32.4762 48.4342 32.4762 48.4205C32.4763 48.3932 32.4765 48.3523 32.477 48.2987C32.4778 48.1913 32.4795 48.0329 32.483 47.8297C32.4899 47.4232 32.5037 46.8377 32.5313 46.1237C32.5865 44.695 32.697 42.7551 32.9176 40.7069C33.1384 38.6562 33.4683 36.5102 33.9589 34.6644C34.4555 32.7962 35.0955 31.3222 35.8843 30.5334L35.1772 29.8263ZM31.9761 48.4609C32.4761 48.4609 32.4761 48.4608 32.4761 48.4606C32.4761 48.4605 32.4761 48.4603 32.4761 48.46C32.4761 48.4595 32.4761 48.4587 32.4761 48.4578C32.4761 48.4558 32.4761 48.453 32.4761 48.4493C32.4761 48.4419 32.4761 48.4309 32.476 48.4166C32.4759 48.388 32.4757 48.3457 32.4752 48.2907C32.4743 48.1805 32.4726 48.0191 32.4691 47.8127C32.4621 47.4 32.4481 46.8072 32.4202 46.0851C32.3644 44.6415 32.2527 42.6776 32.0289 40.5999C31.8054 38.5247 31.4688 36.3226 30.9597 34.4075C30.4566 32.5147 29.7635 30.8148 28.775 29.8263L28.0679 30.5334C28.8567 31.3222 29.4967 32.7962 29.9933 34.6644C30.4839 36.5102 30.8138 38.6562 31.0347 40.7069C31.2552 42.7551 31.3657 44.695 31.4209 46.1237C31.4486 46.8377 31.4623 47.4232 31.4692 47.8297C31.4727 48.0329 31.4744 48.1913 31.4753 48.2987C31.4757 48.3523 31.4759 48.3932 31.476 48.4205C31.4761 48.4342 31.4761 48.4444 31.4761 48.4512C31.4761 48.4546 31.4761 48.4571 31.4761 48.4587C31.4761 48.4595 31.4761 48.4601 31.4761 48.4605C31.4761 48.4607 31.4761 48.4608 31.4761 48.4609C31.4761 48.4609 31.4761 48.4609 31.9761 48.4609ZM28.775 29.8263C27.8155 28.8668 26.4088 28.1063 24.8846 27.5014C23.3521 26.8933 21.6585 26.4263 20.0887 26.0739C18.5173 25.7211 17.0596 25.4809 15.9954 25.3289C15.4629 25.2528 15.0281 25.1987 14.7258 25.1635C14.5746 25.146 14.4565 25.1331 14.3758 25.1246C14.3355 25.1204 14.3045 25.1172 14.2834 25.1151C14.2728 25.1141 14.2647 25.1133 14.2592 25.1127C14.2564 25.1125 14.2543 25.1123 14.2528 25.1121C14.2521 25.112 14.2515 25.112 14.2511 25.1119C14.2509 25.1119 14.2507 25.1119 14.2506 25.1119C14.2504 25.1119 14.2503 25.1119 14.2029 25.6096C14.1555 26.1074 14.1554 26.1074 14.1555 26.1074C14.1555 26.1074 14.1556 26.1074 14.1557 26.1074C14.1559 26.1074 14.1563 26.1074 14.1568 26.1075C14.1579 26.1076 14.1597 26.1078 14.162 26.108C14.1668 26.1085 14.1741 26.1092 14.1838 26.1102C14.2033 26.1121 14.2326 26.1151 14.2712 26.1191C14.3485 26.1273 14.4629 26.1397 14.6103 26.1569C14.905 26.1911 15.3311 26.2441 15.854 26.3188C16.9003 26.4683 18.3308 26.7042 19.8697 27.0496C21.4102 27.3955 23.049 27.8489 24.5158 28.4309C25.9908 29.0162 27.2501 29.7156 28.0679 30.5334L28.775 29.8263Z" fill="#4E4E4E"/>
<path d="M10.1406 39.9817V39.4817C9.87315 39.4817 9.65305 39.6922 9.64112 39.9595C9.6292 40.2267 9.82967 40.4559 10.0961 40.4798L10.1406 39.9817ZM17.2421 32.7189C17.2421 32.4428 17.0183 32.2189 16.7421 32.2189C16.466 32.2189 16.2421 32.4428 16.2421 32.7189H17.2421ZM23.3436 39.9817L23.3881 40.4798C23.6545 40.4559 23.855 40.2267 23.8431 39.9595C23.8312 39.6922 23.6111 39.4817 23.3436 39.4817V39.9817ZM16.2421 47.9531C16.2421 48.2293 16.466 48.4531 16.7421 48.4531C17.0183 48.4531 17.2421 48.2293 17.2421 47.9531H16.2421ZM10.1406 39.9817C10.1406 40.4817 10.1407 40.4817 10.1408 40.4817C10.1409 40.4817 10.141 40.4817 10.1411 40.4817C10.1413 40.4817 10.1416 40.4817 10.142 40.4817C10.1426 40.4817 10.1436 40.4817 10.1447 40.4817C10.1471 40.4817 10.1503 40.4817 10.1545 40.4817C10.1629 40.4817 10.175 40.4816 10.1906 40.4814C10.2217 40.4811 10.2668 40.4805 10.3243 40.4792C10.4392 40.4767 10.6037 40.4717 10.8048 40.4618C11.2063 40.4419 11.7573 40.4022 12.3526 40.3223C12.9459 40.2427 13.5952 40.1217 14.189 39.9358C14.7733 39.7529 15.3529 39.4924 15.7641 39.1062L15.0795 38.3773C14.8306 38.6111 14.4199 38.8156 13.8902 38.9815C13.3701 39.1443 12.7815 39.2558 12.2196 39.3312C11.6597 39.4063 11.1379 39.4441 10.7555 39.463C10.5646 39.4724 10.4094 39.4771 10.3025 39.4794C10.2491 39.4806 10.2078 39.4812 10.1803 39.4815C10.1665 39.4816 10.1562 39.4817 10.1495 39.4817C10.1462 39.4817 10.1438 39.4817 10.1423 39.4817C10.1415 39.4817 10.141 39.4817 10.1407 39.4817C10.1406 39.4817 10.1405 39.4817 10.1405 39.4817C10.1405 39.4817 10.1405 39.4817 10.1405 39.4817C10.1406 39.4817 10.1406 39.4817 10.1406 39.9817ZM15.7641 39.1062C16.1944 38.7021 16.4726 38.0633 16.6643 37.4204C16.8611 36.7601 16.9891 36.0154 17.0734 35.326C17.1579 34.6341 17.2 33.9839 17.221 33.5077C17.2315 33.2691 17.2368 33.0733 17.2394 32.9365C17.2408 32.8681 17.2414 32.8144 17.2418 32.7775C17.2419 32.759 17.242 32.7448 17.2421 32.7349C17.2421 32.73 17.2421 32.7262 17.2421 32.7235C17.2421 32.7222 17.2421 32.7211 17.2421 32.7203C17.2421 32.72 17.2421 32.7197 17.2421 32.7194C17.2421 32.7193 17.2421 32.7192 17.2421 32.7191C17.2421 32.719 17.2421 32.7189 16.7421 32.7189C16.2421 32.7189 16.2421 32.7189 16.2421 32.7189C16.2421 32.7189 16.2421 32.7189 16.2421 32.7189C16.2421 32.7189 16.2421 32.7191 16.2421 32.7193C16.2421 32.7197 16.2421 32.7203 16.2421 32.7213C16.2421 32.7232 16.2421 32.7263 16.2421 32.7305C16.242 32.7388 16.242 32.7515 16.2418 32.7684C16.2415 32.8021 16.2409 32.8524 16.2396 32.9172C16.2371 33.0468 16.2321 33.2343 16.222 33.4636C16.2017 33.9229 16.1613 34.5459 16.0808 35.2047C16 35.866 15.8804 36.5495 15.706 37.1347C15.5263 37.7373 15.3094 38.1614 15.0795 38.3773L15.7641 39.1062ZM16.7421 32.7189C16.2421 32.7189 16.2421 32.719 16.2421 32.7191C16.2421 32.7192 16.2421 32.7193 16.2421 32.7194C16.2421 32.7197 16.2421 32.72 16.2421 32.7203C16.2421 32.7211 16.2421 32.7222 16.2421 32.7235C16.2421 32.7262 16.2421 32.73 16.2422 32.7349C16.2422 32.7448 16.2423 32.759 16.2425 32.7775C16.2428 32.8144 16.2435 32.8681 16.2448 32.9365C16.2474 33.0733 16.2527 33.2691 16.2632 33.5077C16.2842 33.9839 16.3263 34.6341 16.4108 35.326C16.4951 36.0154 16.6231 36.7601 16.82 37.4204C17.0116 38.0633 17.2899 38.7021 17.7201 39.1062L18.4047 38.3773C18.1748 38.1614 17.9579 37.7373 17.7783 37.1347C17.6038 36.5495 17.4843 35.866 17.4035 35.2047C17.323 34.5459 17.2825 33.9229 17.2623 33.4636C17.2521 33.2343 17.2471 33.0468 17.2446 32.9172C17.2433 32.8524 17.2427 32.8021 17.2424 32.7684C17.2423 32.7515 17.2422 32.7388 17.2421 32.7305C17.2421 32.7263 17.2421 32.7232 17.2421 32.7213C17.2421 32.7203 17.2421 32.7197 17.2421 32.7193C17.2421 32.7191 17.2421 32.7189 17.2421 32.7189C17.2421 32.7189 17.2421 32.7189 17.2421 32.7189C17.2421 32.7189 17.2421 32.7189 16.7421 32.7189ZM17.7201 39.1062C18.1313 39.4924 18.7109 39.7529 19.2952 39.9358C19.889 40.1217 20.5383 40.2427 21.1316 40.3223C21.7269 40.4022 22.2779 40.4419 22.6794 40.4618C22.8805 40.4717 23.045 40.4767 23.1599 40.4792C23.2174 40.4805 23.2625 40.4811 23.2936 40.4814C23.3092 40.4816 23.3213 40.4817 23.3297 40.4817C23.3339 40.4817 23.3372 40.4817 23.3395 40.4817C23.3406 40.4817 23.3416 40.4817 23.3423 40.4817C23.3426 40.4817 23.3429 40.4817 23.3431 40.4817C23.3432 40.4817 23.3433 40.4817 23.3434 40.4817C23.3435 40.4817 23.3436 40.4817 23.3436 39.9817C23.3436 39.4817 23.3437 39.4817 23.3437 39.4817C23.3437 39.4817 23.3437 39.4817 23.3437 39.4817C23.3437 39.4817 23.3436 39.4817 23.3435 39.4817C23.3432 39.4817 23.3427 39.4817 23.342 39.4817C23.3405 39.4817 23.338 39.4817 23.3347 39.4817C23.328 39.4817 23.3177 39.4816 23.3039 39.4815C23.2764 39.4812 23.2352 39.4806 23.1817 39.4794C23.0749 39.4771 22.9196 39.4724 22.7288 39.463C22.3463 39.4441 21.8246 39.4063 21.2646 39.3312C20.7027 39.2558 20.1142 39.1443 19.594 38.9815C19.0643 38.8156 18.6536 38.6111 18.4047 38.3773L17.7201 39.1062ZM23.3436 39.9817C23.299 39.4837 23.299 39.4837 23.2989 39.4838C23.2988 39.4838 23.2987 39.4838 23.2986 39.4838C23.2984 39.4838 23.2981 39.4838 23.2978 39.4839C23.2971 39.4839 23.2962 39.484 23.2951 39.4841C23.2928 39.4843 23.2896 39.4846 23.2854 39.485C23.2771 39.4858 23.2651 39.4869 23.2496 39.4885C23.2187 39.4915 23.1738 39.4961 23.1165 39.5023C23.0021 39.5148 22.8381 39.534 22.6376 39.5609C22.2372 39.6146 21.688 39.6996 21.095 39.8246C20.5036 39.9493 19.8585 40.1159 19.27 40.3353C18.6904 40.5513 18.1221 40.834 17.7201 41.2116L18.4047 41.9405C18.6629 41.698 19.0848 41.4715 19.6192 41.2723C20.1446 41.0765 20.7374 40.922 21.3013 40.8031C21.8635 40.6846 22.3871 40.6035 22.7706 40.552C22.962 40.5264 23.1178 40.5082 23.2251 40.4964C23.2787 40.4906 23.3202 40.4863 23.3479 40.4836C23.3618 40.4822 23.3722 40.4812 23.379 40.4806C23.3824 40.4803 23.3848 40.4801 23.3864 40.4799C23.3871 40.4799 23.3877 40.4798 23.388 40.4798C23.3881 40.4798 23.3882 40.4798 23.3882 40.4798C23.3882 40.4797 23.3882 40.4798 23.3882 40.4798C23.3882 40.4798 23.3881 40.4798 23.3436 39.9817ZM17.7201 41.2116C17.2851 41.6201 17.008 42.288 16.818 42.9594C16.622 43.6519 16.4944 44.4399 16.4104 45.1726C16.3261 45.9079 16.2841 46.6016 16.2632 47.1105C16.2527 47.3653 16.2474 47.5747 16.2448 47.721C16.2434 47.7941 16.2428 47.8515 16.2425 47.8909C16.2423 47.9106 16.2422 47.9258 16.2422 47.9363C16.2421 47.9415 16.2421 47.9456 16.2421 47.9484C16.2421 47.9498 16.2421 47.9509 16.2421 47.9517C16.2421 47.9521 16.2421 47.9524 16.2421 47.9526C16.2421 47.9528 16.2421 47.9529 16.2421 47.9529C16.2421 47.953 16.2421 47.9531 16.7421 47.9531C17.2421 47.9531 17.2421 47.9532 17.2421 47.9532C17.2421 47.9532 17.2421 47.9532 17.2421 47.9531C17.2421 47.9531 17.2421 47.9529 17.2421 47.9527C17.2421 47.9522 17.2421 47.9515 17.2421 47.9504C17.2421 47.9483 17.2421 47.9449 17.2421 47.9404C17.2422 47.9314 17.2423 47.9176 17.2424 47.8994C17.2427 47.8629 17.2433 47.8088 17.2446 47.739C17.2471 47.5994 17.2522 47.3978 17.2623 47.1517C17.2826 46.6586 17.3232 45.9905 17.4039 45.2865C17.4849 44.5799 17.6049 43.8512 17.7802 43.2317C17.9615 42.5912 18.1796 42.1519 18.4047 41.9405L17.7201 41.2116ZM16.7421 47.9531C17.2421 47.9531 17.2421 47.953 17.2421 47.9529C17.2421 47.9529 17.2421 47.9528 17.2421 47.9526C17.2421 47.9524 17.2421 47.9521 17.2421 47.9517C17.2421 47.9509 17.2421 47.9498 17.2421 47.9484C17.2421 47.9456 17.2421 47.9415 17.2421 47.9363C17.242 47.9258 17.2419 47.9106 17.2418 47.8909C17.2414 47.8515 17.2408 47.7941 17.2394 47.721C17.2368 47.5747 17.2315 47.3653 17.2211 47.1105C17.2001 46.6016 17.1581 45.9079 17.0738 45.1726C16.9898 44.4399 16.8622 43.6519 16.6662 42.9594C16.4762 42.288 16.1991 41.6201 15.7641 41.2116L15.0795 41.9405C15.3046 42.1519 15.5227 42.5912 15.704 43.2317C15.8793 43.8512 15.9993 44.5799 16.0803 45.2865C16.161 45.9905 16.2016 46.6586 16.2219 47.1517C16.232 47.3978 16.2371 47.5994 16.2396 47.739C16.2409 47.8088 16.2415 47.8629 16.2418 47.8994C16.242 47.9176 16.242 47.9314 16.2421 47.9404C16.2421 47.9449 16.2421 47.9483 16.2421 47.9504C16.2421 47.9515 16.2421 47.9522 16.2421 47.9527C16.2421 47.9529 16.2421 47.9531 16.2421 47.9531C16.2421 47.9532 16.2421 47.9532 16.2421 47.9532C16.2421 47.9532 16.2421 47.9531 16.7421 47.9531ZM15.7641 41.2116C15.3621 40.834 14.7938 40.5513 14.2142 40.3353C13.6257 40.1159 12.9806 39.9493 12.3893 39.8246C11.7962 39.6996 11.2471 39.6146 10.8466 39.5609C10.6461 39.534 10.4821 39.5148 10.3677 39.5023C10.3104 39.4961 10.2655 39.4915 10.2346 39.4885C10.2191 39.4869 10.2071 39.4858 10.1988 39.485C10.1947 39.4846 10.1914 39.4843 10.1892 39.4841C10.188 39.484 10.1871 39.4839 10.1864 39.4839C10.1861 39.4838 10.1858 39.4838 10.1856 39.4838C10.1855 39.4838 10.1854 39.4838 10.1854 39.4838C10.1853 39.4837 10.1852 39.4837 10.1406 39.9817C10.0961 40.4798 10.096 40.4798 10.096 40.4798C10.096 40.4798 10.096 40.4797 10.096 40.4798C10.096 40.4798 10.0961 40.4798 10.0963 40.4798C10.0965 40.4798 10.0971 40.4799 10.0978 40.4799C10.0994 40.4801 10.1019 40.4803 10.1052 40.4806C10.112 40.4812 10.1224 40.4822 10.1363 40.4836C10.164 40.4863 10.2055 40.4906 10.2591 40.4964C10.3664 40.5082 10.5222 40.5264 10.7137 40.552C11.0972 40.6035 11.6207 40.6846 12.183 40.8031C12.7468 40.922 13.3396 41.0765 13.865 41.2723C14.3995 41.4715 14.8213 41.698 15.0795 41.9405L15.7641 41.2116Z" fill="#4E4E4E"/>
<path d="M1 13.4814V12.9814C0.732258 12.9814 0.512033 13.1923 0.500467 13.4598C0.488901 13.7273 0.690099 13.9564 0.956842 13.9795L1 13.4814ZM10.1327 4.2818C10.1327 4.00566 9.90885 3.7818 9.63271 3.7818C9.35657 3.7818 9.13271 4.00566 9.13271 4.2818H10.1327ZM18.2654 13.4814L18.3086 13.9795C18.5753 13.9564 18.7765 13.7273 18.765 13.4598C18.7534 13.1923 18.5332 12.9814 18.2654 12.9814V13.4814ZM9.13271 23.5784C9.13271 23.8546 9.35657 24.0784 9.63271 24.0784C9.90885 24.0784 10.1327 23.8546 10.1327 23.5784H9.13271ZM1 13.4814C1 13.9814 1.00009 13.9814 1.00021 13.9814C1.00027 13.9814 1.00041 13.9814 1.00053 13.9814C1.00079 13.9814 1.00113 13.9814 1.00154 13.9814C1.00237 13.9814 1.00351 13.9814 1.00496 13.9814C1.00786 13.9813 1.012 13.9813 1.01734 13.9813C1.02803 13.9813 1.04353 13.9812 1.06359 13.981C1.1037 13.9806 1.16205 13.9798 1.23651 13.9782C1.3854 13.975 1.59895 13.9688 1.86021 13.9563C2.38201 13.9313 3.09756 13.8813 3.87007 13.7809C4.64064 13.6807 5.47949 13.529 6.24379 13.2972C6.99814 13.0685 7.72949 12.7474 8.24263 12.2806L7.56971 11.5409C7.21958 11.8594 6.65602 12.1273 5.9536 12.3403C5.26113 12.5502 4.48134 12.693 3.74119 12.7892C3.00298 12.8851 2.31571 12.9333 1.81238 12.9574C1.56107 12.9694 1.35648 12.9754 1.21536 12.9784C1.14482 12.9799 1.0902 12.9806 1.05359 12.981C1.03529 12.9812 1.0215 12.9813 1.01248 12.9813C1.00797 12.9813 1.00465 12.9814 1.00256 12.9814C1.00152 12.9814 1.00078 12.9814 1.00035 12.9814C1.00013 12.9814 0.999998 12.9814 0.999939 12.9814C0.99991 12.9814 0.999926 12.9814 0.999911 12.9814C0.999946 12.9814 1 12.9814 1 13.4814ZM8.24263 12.2806C8.77673 11.7947 9.13269 11.0138 9.3822 10.2032C9.63684 9.37583 9.80322 8.43979 9.91296 7.56983C10.023 6.6973 10.0778 5.87695 10.1052 5.27568C10.1189 4.97465 10.1258 4.72758 10.1292 4.55517C10.131 4.46895 10.1318 4.40134 10.1323 4.35493C10.1325 4.33172 10.1326 4.31381 10.1327 4.30151C10.1327 4.29537 10.1327 4.29062 10.1327 4.28732C10.1327 4.28568 10.1327 4.28439 10.1327 4.28346C10.1327 4.283 10.1327 4.28263 10.1327 4.28236C10.1327 4.28222 10.1327 4.28208 10.1327 4.28201C10.1327 4.28189 10.1327 4.2818 9.63271 4.2818C9.13271 4.2818 9.13271 4.28175 9.13271 4.28173C9.13271 4.28175 9.13271 4.28175 9.13271 4.2818C9.13271 4.28189 9.13271 4.28207 9.13271 4.28234C9.13271 4.28289 9.13271 4.2838 9.1327 4.28507C9.1327 4.2876 9.13269 4.29157 9.13266 4.29694C9.13261 4.30766 9.13251 4.32396 9.13231 4.34551C9.1319 4.38861 9.13109 4.45269 9.12944 4.53519C9.12614 4.70023 9.11952 4.93873 9.10625 5.2302C9.07967 5.81394 9.02658 6.60632 8.92082 7.44468C8.81475 8.28561 8.6574 9.15864 8.42645 9.90898C8.19037 10.676 7.89888 11.2414 7.56971 11.5409L8.24263 12.2806ZM9.63271 4.2818C9.13271 4.2818 9.13271 4.28189 9.13271 4.28201C9.13271 4.28208 9.13271 4.28222 9.13271 4.28236C9.13271 4.28263 9.13271 4.283 9.13271 4.28346C9.13271 4.28439 9.13271 4.28568 9.13272 4.28732C9.13273 4.29062 9.13274 4.29537 9.13277 4.30151C9.13282 4.31381 9.13294 4.33172 9.13315 4.35493C9.13359 4.40134 9.13446 4.46895 9.13618 4.55517C9.13963 4.72758 9.1465 4.97465 9.1602 5.27568C9.18758 5.87695 9.2424 6.6973 9.35246 7.56983C9.4622 8.43979 9.62858 9.37583 9.88322 10.2032C10.1327 11.0138 10.4887 11.7947 11.0228 12.2806L11.6957 11.5409C11.3665 11.2414 11.075 10.676 10.839 9.90898C10.608 9.15864 10.4507 8.28561 10.3446 7.44468C10.2388 6.60632 10.1857 5.81394 10.1592 5.2302C10.1459 4.93873 10.1393 4.70023 10.136 4.53519C10.1343 4.45269 10.1335 4.38861 10.1331 4.34551C10.1329 4.32396 10.1328 4.30766 10.1328 4.29694C10.1327 4.29157 10.1327 4.2876 10.1327 4.28507C10.1327 4.2838 10.1327 4.28289 10.1327 4.28234C10.1327 4.28207 10.1327 4.28189 10.1327 4.2818C10.1327 4.28175 10.1327 4.28175 10.1327 4.28173C10.1327 4.28175 10.1327 4.2818 9.63271 4.2818ZM11.0228 12.2806C11.5359 12.7474 12.2673 13.0685 13.0216 13.2972C13.7859 13.529 14.6248 13.6807 15.3954 13.7809C16.1679 13.8813 16.8834 13.9313 17.4052 13.9563C17.6665 13.9688 17.88 13.975 18.0289 13.9782C18.1034 13.9798 18.1617 13.9806 18.2018 13.981C18.2219 13.9812 18.2374 13.9813 18.2481 13.9813C18.2534 13.9813 18.2576 13.9813 18.2605 13.9814C18.2619 13.9814 18.2631 13.9814 18.2639 13.9814C18.2643 13.9814 18.2646 13.9814 18.2649 13.9814C18.265 13.9814 18.2651 13.9814 18.2652 13.9814C18.2653 13.9814 18.2654 13.9814 18.2654 13.4814C18.2654 12.9814 18.2655 12.9814 18.2655 12.9814C18.2655 12.9814 18.2655 12.9814 18.2655 12.9814C18.2654 12.9814 18.2653 12.9814 18.2651 12.9814C18.2646 12.9814 18.2639 12.9814 18.2629 12.9814C18.2608 12.9814 18.2575 12.9813 18.2529 12.9813C18.2439 12.9813 18.2301 12.9812 18.2118 12.981C18.1752 12.9806 18.1206 12.9799 18.0501 12.9784C17.9089 12.9754 17.7044 12.9694 17.453 12.9574C16.9497 12.9333 16.2624 12.8851 15.5242 12.7892C14.7841 12.693 14.0043 12.5502 13.3118 12.3403C12.6094 12.1273 12.0458 11.8594 11.6957 11.5409L11.0228 12.2806ZM18.2654 13.4814C18.2223 12.9832 18.2222 12.9832 18.2221 12.9832C18.222 12.9833 18.2219 12.9833 18.2218 12.9833C18.2215 12.9833 18.2212 12.9833 18.2208 12.9834C18.22 12.9834 18.2189 12.9835 18.2174 12.9837C18.2146 12.9839 18.2105 12.9843 18.2052 12.9848C18.1946 12.9857 18.1792 12.9872 18.1592 12.9891C18.1193 12.9929 18.0611 12.9986 17.9869 13.0065C17.8384 13.0222 17.6254 13.0463 17.3647 13.0802C16.8439 13.1479 16.1301 13.2549 15.3597 13.4122C14.591 13.5692 13.7562 13.7782 12.997 14.0523C12.247 14.3231 11.5267 14.6725 11.0228 15.1309L11.6957 15.8706C12.0551 15.5437 12.6296 15.2481 13.3365 14.9929C14.034 14.7411 14.8178 14.5435 15.5598 14.392C16.3002 14.2408 16.9892 14.1374 17.4936 14.0719C17.7454 14.0391 17.9505 14.0159 18.0921 14.0009C18.1628 13.9935 18.2177 13.988 18.2545 13.9845C18.2728 13.9828 18.2867 13.9815 18.2958 13.9806C18.3004 13.9802 18.3038 13.9799 18.3059 13.9797C18.307 13.9796 18.3077 13.9796 18.3082 13.9795C18.3084 13.9795 18.3085 13.9795 18.3086 13.9795C18.3086 13.9795 18.3086 13.9795 18.3087 13.9795C18.3086 13.9795 18.3086 13.9795 18.2654 13.4814ZM11.0228 15.1309C10.4837 15.6213 10.129 16.4373 9.88116 17.2853C9.62742 18.1537 9.4615 19.1448 9.352 20.0698C9.24217 20.9975 9.18746 21.8732 9.16014 22.5159C9.14646 22.8377 9.13961 23.102 9.13617 23.2865C9.13445 23.3787 9.13359 23.451 9.13315 23.5006C9.13293 23.5254 9.13282 23.5445 9.13277 23.5576C9.13274 23.5641 9.13273 23.5692 9.13272 23.5727C9.13271 23.5744 9.13271 23.5758 9.13271 23.5767C9.13271 23.5772 9.13271 23.5776 9.13271 23.5779C9.13271 23.578 9.13271 23.5782 9.13271 23.5782C9.13271 23.5784 9.13271 23.5784 9.63271 23.5784C10.1327 23.5784 10.1327 23.5785 10.1327 23.5785C10.1327 23.5785 10.1327 23.5785 10.1327 23.5784C10.1327 23.5783 10.1327 23.5781 10.1327 23.5778C10.1327 23.5772 10.1327 23.5762 10.1327 23.5748C10.1327 23.572 10.1327 23.5677 10.1328 23.5619C10.1328 23.5502 10.1329 23.5326 10.1331 23.5094C10.1335 23.4629 10.1343 23.3939 10.136 23.3051C10.1393 23.1275 10.1459 22.8712 10.1592 22.5584C10.1859 21.932 10.2391 21.0828 10.3451 20.1874C10.4514 19.2893 10.6092 18.3592 10.841 17.5658C11.0788 16.752 11.3715 16.1656 11.6957 15.8706L11.0228 15.1309ZM9.63271 23.5784C10.1327 23.5784 10.1327 23.5784 10.1327 23.5782C10.1327 23.5782 10.1327 23.578 10.1327 23.5779C10.1327 23.5776 10.1327 23.5772 10.1327 23.5767C10.1327 23.5758 10.1327 23.5744 10.1327 23.5727C10.1327 23.5692 10.1327 23.5641 10.1327 23.5576C10.1326 23.5445 10.1325 23.5254 10.1323 23.5006C10.1318 23.451 10.131 23.3787 10.1293 23.2865C10.1258 23.102 10.119 22.8377 10.1053 22.5159C10.078 21.8732 10.0232 20.9975 9.91343 20.0698C9.80392 19.1448 9.638 18.1537 9.38426 17.2853C9.13646 16.4373 8.78169 15.6213 8.24263 15.1309L7.56971 15.8706C7.89391 16.1656 8.1866 16.752 8.42439 17.5658C8.65624 18.3592 8.81405 19.2893 8.92036 20.1874C9.02635 21.0828 9.07955 21.932 9.10618 22.5584C9.11948 22.8712 9.12612 23.1275 9.12942 23.3051C9.13108 23.3939 9.1319 23.4629 9.13231 23.5094C9.13251 23.5326 9.13261 23.5502 9.13266 23.5619C9.13269 23.5677 9.1327 23.572 9.1327 23.5748C9.13271 23.5762 9.13271 23.5772 9.13271 23.5778C9.13271 23.5781 9.13271 23.5783 9.13271 23.5784C9.13271 23.5785 9.13271 23.5785 9.13271 23.5785C9.13271 23.5785 9.13271 23.5784 9.63271 23.5784ZM8.24263 15.1309C7.73872 14.6725 7.01839 14.3231 6.26847 14.0523C5.50921 13.7782 4.67438 13.5692 3.90568 13.4122C3.13533 13.2549 2.4215 13.1479 1.90073 13.0802C1.64005 13.0463 1.42699 13.0222 1.27853 13.0065C1.20428 12.9986 1.14614 12.9929 1.10622 12.9891C1.08625 12.9872 1.07084 12.9857 1.06024 12.9848C1.05495 12.9843 1.05085 12.9839 1.04799 12.9837C1.04656 12.9835 1.04544 12.9834 1.04464 12.9834C1.04423 12.9833 1.04391 12.9833 1.04366 12.9833C1.04354 12.9833 1.04341 12.9833 1.04335 12.9832C1.04324 12.9832 1.04316 12.9832 1 13.4814C0.956842 13.9795 0.956795 13.9795 0.956769 13.9795C0.956786 13.9795 0.956778 13.9795 0.956813 13.9795C0.956882 13.9795 0.957028 13.9795 0.957253 13.9795C0.957702 13.9796 0.958462 13.9796 0.959529 13.9797C0.961663 13.9799 0.965024 13.9802 0.969578 13.9806C0.978688 13.9815 0.992571 13.9828 1.01097 13.9845C1.04776 13.988 1.10258 13.9935 1.17334 14.0009C1.31488 14.0159 1.51998 14.0391 1.77186 14.0719C2.27622 14.1374 2.9652 14.2408 3.70559 14.392C4.4476 14.5435 5.23141 14.7411 5.92892 14.9929C6.63577 15.2481 7.21035 15.5437 7.56971 15.8706L8.24263 15.1309Z" fill="#4E4E4E"/>
<path d="M85.8036 49.9844C84.2802 50.1537 80.5224 49.8827 77.6787 49.4765C74.835 49.0703 71.4157 46.7683 70.0616 45.4141C67.184 46.0912 61.2258 47.3438 60.4133 46.9376C59.3977 46.4298 55.3352 41.3516 55.3352 34.2424C55.3352 28.555 58.0435 25.4404 59.3977 24.5941L68.0304 25.1019C68.0304 25.1019 69.046 23.5784 72.0928 20.5315C75.1397 17.4847 76.6631 14.9457 76.6631 11.8989C76.6631 8.34426 74.6319 5.29738 76.1553 2.25059C77.1709 0.219387 80.3593 0.990941 82.249 2.25058C83.7724 3.2661 85.2958 5.29742 85.8036 7.32864C86.2098 8.95362 85.6343 12.7452 85.2958 14.4379C85.1265 15.6228 84.9911 18.3988 85.8036 20.0238C86.6161 21.6488 88.8504 22.055 89.866 22.055M85.8036 49.9844C86.4807 50.3229 88.6473 51 91.8973 51C95.9597 51 97.6101 49.9843 97.991 48.4609C98.3718 46.9375 97.991 45.9218 96.4675 44.9062M85.8036 49.9844C85.4651 49.6458 84.788 48.664 84.788 47.4453C84.788 44.9062 87.8348 44.9062 90.8817 44.9062M96.4675 44.9062C99.0067 44.9062 101.038 43.8908 101.038 41.3517C101.038 38.8126 98.4988 37.797 98.4988 37.797M96.4675 44.9062C95.4519 44.9062 95.9597 44.9062 90.8817 44.9062M98.4988 37.797C98.4988 37.797 102.053 36.172 102.053 33.7345C102.053 31.297 99.8529 30.1799 98.4988 29.6721M98.4988 37.797L85.2958 37.7969M98.4988 29.6721C100.022 29.3336 102.053 28.1488 102.053 25.6097C102.053 23.0706 99.3451 22.2243 98.4988 22.055H89.866M98.4988 29.6721H85.8036M89.866 22.055C89.866 22.055 86.8192 22.0549 85.8036 22.5627C84.788 23.0706 82.7568 24.1877 82.7568 26.6252C82.7568 27.6408 84.2802 29.1642 85.8036 29.6721M90.8817 44.9062C85.8036 44.3984 83.7724 42.875 83.7724 40.8438C83.7724 38.8126 84.4833 38.2032 85.2958 37.7969M85.2958 37.7969C84.6187 37.4584 82.7568 35.7657 82.7568 33.7345C82.7568 32.2111 83.7724 30.6877 85.8036 29.6721" stroke="#4E4E4E"/>
</svg>
