<svg width="98" height="52" viewBox="0 0 98 52" fill="none" xmlns="http://www.w3.org/2000/svg">
<path d="M11.91 29.5311L8.27953 44.5715L22.8013 36.792L38.3604 44.5715L34.2113 29.5311L46.6586 17.6025H29.5436L22.8013 1.52478L16.0591 17.6025H0.5L11.91 29.5311Z" stroke="#4E4E4E" stroke-linecap="round" stroke-linejoin="round"/>
<path d="M18.6523 50.2766L22.8014 40.4225L26.4319 50.2766H18.6523Z" stroke="#4E4E4E" stroke-linecap="round" stroke-linejoin="round"/>
<path d="M41.0913 5.95581L32.5711 12.4151L34.3541 2.06604L41.0913 5.95581Z" stroke="#4E4E4E" stroke-linecap="round" stroke-linejoin="round"/>
<path d="M9.63148 2.04347L13.6655 11.9452L4.13052 7.54443L9.63148 2.04347Z" stroke="#4E4E4E" stroke-linecap="round" stroke-linejoin="round"/>
<path d="M94.373 24.0248C95.4542 24.6816 96.1974 25.317 96.4476 25.9007C98.0035 29.5311 94.8917 34.1988 94.373 36.792C93.8544 39.3852 94.373 43.5343 92.2985 46.1275C90.2239 48.7206 82.963 50.7952 80.3699 50.7952C77.7767 50.7952 74.1462 51.3138 71.553 48.7206C68.9599 46.1275 61.1803 39.9039 60.6617 36.792C60.1431 33.6802 60.6617 31.6057 59.6244 30.5684C58.7946 29.7386 58.5872 28.4938 58.5872 27.4566C58.5872 26.4193 61.3878 24.6559 64.2922 25.9007C67.1965 27.1454 68.6141 31.6056 68.9599 33.6802C69.9971 34.7175 72.9015 36.4808 76.2208 35.2361C79.54 33.9914 81.0614 30.9141 81.4071 29.5311C80.7156 29.3582 79.0214 28.7013 77.7767 27.4566C76.532 26.2118 75.5293 25.2091 75.1835 24.8634C73.9733 25.2091 70.5158 25.3821 68.4412 25.3821C65.8481 25.3821 63.2549 24.8634 62.7362 22.7888C62.2176 20.7143 65.3294 18.8393 68.4412 18.1212C71.7007 17.3689 73.9256 16.7528 75.1835 17.0838C76.4414 17.4149 77.9515 17.8359 79.5798 18.3207M94.373 24.0248L90.2239 11.8975L82.963 1.5248C82.4444 1.00617 80.8885 0.280076 78.8139 1.5248C77.258 2.14472 78.1916 4.84402 78.8139 5.67384M94.373 24.0248C92.3077 22.7703 89.0087 21.4378 85.5562 20.2387M85.5562 20.2387C85.902 19.5328 86.386 17.7062 85.5562 16.0466C84.5189 13.972 80.3699 7.74838 78.8139 5.67384M85.5562 20.2387C83.5451 19.5402 81.4818 18.8869 79.5798 18.3207M85.5562 20.2387L82.568 19.2797M78.8139 5.67384C77.9496 5.67384 76.0133 6.08875 75.1835 7.74838C75.1835 9.82292 80.3699 15.0093 81.4071 17.0838C82.2369 18.7435 82.5268 19.2393 82.568 19.2797M79.5798 18.3207L82.568 19.2797" stroke="#4E4E4E"/>
</svg>
