<svg width="114" height="52" viewBox="0 0 114 52" fill="none" xmlns="http://www.w3.org/2000/svg">
<path d="M69.1134 22.1628L69.0098 30.1272L75.3387 24.5979L83.9392 26.7734L80.1818 19.6763L85.0126 12.293L76.5183 14.2012L71.3567 6.87191L69.8258 15.7046L62.1037 17.4393L69.1134 22.1628Z" stroke="#4E4E4E" stroke-linecap="round" stroke-linejoin="round"/>
<path d="M66.4151 20.5748C65.657 22.7775 65.2454 25.1415 65.2454 27.6016C65.2454 39.5212 74.9081 49.184 86.8278 49.184C98.7474 49.184 108.41 39.5212 108.41 27.6016C108.41 25.1415 107.999 22.7775 107.24 20.5748M74.287 10.0345C77.8216 7.50672 82.151 6.01917 86.8278 6.01917C91.5046 6.01917 95.834 7.50672 99.3686 10.0345" stroke="#4E4E4E" stroke-linecap="round" stroke-linejoin="round"/>
<path d="M68.2568 16.0575C68.7588 15.0536 69.7626 13.5479 70.2645 13.046" stroke="#4E4E4E"/>
<path d="M103.744 13.6964C103.549 13.5012 103.232 13.5013 103.037 13.6966C102.842 13.8919 102.842 14.2085 103.037 14.4037L103.744 13.6964ZM103.037 14.4037C103.539 14.9053 104.543 15.9091 105.045 16.4109L105.752 15.7039C105.25 15.202 104.246 14.1981 103.744 13.6964L103.037 14.4037Z" fill="#4E4E4E"/>
<path d="M104.266 22.1628L104.37 30.1272L98.0407 24.5979L89.4402 26.7734L93.1976 19.6763L88.3668 12.293L96.8611 14.2012L102.023 6.87191L103.554 15.7046L111.276 17.4393L104.266 22.1628Z" stroke="#4E4E4E" stroke-linecap="round" stroke-linejoin="round"/>
<path d="M72.7741 34.6033C74.4505 38.7185 78.3709 44.1649 86.3257 44.1649C94.4247 44.1649 98.5508 38.7283 100.189 34.6033M72.7741 34.6033C71.8061 32.2272 71.5864 30.2949 71.7701 30.1112C72.2722 29.6093 78.2949 32.1189 85.8238 32.1188C93.3527 32.1188 99.8775 29.1073 100.881 30.1112C101.237 30.4671 101.088 32.3373 100.189 34.6033M72.7741 34.6033C75.2836 35.2809 81.4069 36.6361 85.8238 36.6361C90.2408 36.6361 97.2408 35.2809 100.189 34.6033" stroke="#4E4E4E"/>
<path d="M19.7881 42.084L20.5787 39.3945L25.0346 37.9459M19.7881 42.084L18.0752 47.9126L13.6387 40.7207L4.69741 40.4394L10.6019 34.5349L6.9453 25.7611L15.7191 29.4177L22.214 22.9228L22.1017 32.2576L29.4904 36.4974L25.0346 37.9459M19.7881 42.084C25.9785 46.4157 39.4385 53.5742 45.3859 50.0598C56.4281 43.5348 44.5683 23.6706 30.8302 12.4159C18.5767 2.37749 5.03179 -2.13972 1.71904 3.38142C-0.690164 7.39666 3.72701 18.9409 3.72701 18.9409C3.72701 18.9409 1.16522 5.77486 3.22509 4.38526C6.9453 1.87567 17.0555 4.38536 28.3207 13.9218C39.586 23.4582 48.8993 44.0368 41.8725 45.0406C36.3865 45.8243 29.319 41.0268 25.0346 37.9459" stroke="#4E4E4E" stroke-linecap="round" stroke-linejoin="round"/>
</svg>
