<svg width="83" height="83" viewBox="0 0 83 83" fill="none" xmlns="http://www.w3.org/2000/svg">
<g style="mix-blend-mode:multiply">
<path d="M24.9729 75.0121H18.355C12.4125 75.0121 7.55034 70.15 7.55034 64.2074V17.9499C7.55034 12.0073 12.4125 7.14517 18.355 7.14517H64.1399C70.0825 7.14517 74.9446 12.0073 74.9446 17.9499V64.2074C74.9446 70.15 70.0825 75.0121 64.1399 75.0121H46.1771L46.0421 48.0004H56.7117V37.1957H46.0421V31.9284C46.0421 29.6324 47.8653 27.8091 50.1613 27.8091H56.7117V15.0461H44.5564C37.1957 15.0461 31.2531 20.9887 31.2531 28.3494V37.1957H25.7833V48.0679H31.2531V81.63H17.207C8.29317 81.63 1 74.4044 1 65.423V17.207C1 8.29317 8.22564 1 17.207 1H65.423C74.3368 1 81.63 8.22564 81.63 17.207V65.423C81.63 74.3368 74.4044 81.63 65.423 81.63H39.2216" stroke="#3E3A37" stroke-miterlimit="10" stroke-linecap="round" stroke-linejoin="round"/>
</g>
</svg>
