<svg width="85" height="85" viewBox="0 0 85 85" fill="none" xmlns="http://www.w3.org/2000/svg">
<path d="M17.7382 84.2029C8.5322 84.2029 1 76.7405 1 67.4647V17.7382C1 8.5322 8.46246 1 17.7382 1H67.5344C76.7405 1 84.2727 8.46246 84.2727 17.7382V67.5344C84.2727 76.7405 76.8102 84.2727 67.5344 84.2727H17.7382V84.2029Z" stroke="#3E3A37" stroke-miterlimit="10" stroke-linecap="round" stroke-linejoin="round"/>
<path d="M18.9936 77.438C12.8562 77.438 7.83478 72.4165 7.83478 66.2792V18.5055C7.83478 12.3681 12.8562 7.34668 18.9936 7.34668H66.2791C72.4164 7.34668 77.4379 12.3681 77.4379 18.5055V66.2792C77.4379 72.4165 72.4164 77.438 66.2791 77.438H18.9936Z" stroke="#3E3A37" stroke-miterlimit="10" stroke-linecap="round" stroke-linejoin="round"/>
<path d="M42.6363 63.4196C54.2302 63.4196 63.6288 54.0209 63.6288 42.4271C63.6288 30.8332 54.2302 21.4346 42.6363 21.4346C31.0425 21.4346 21.6438 30.8332 21.6438 42.4271C21.6438 54.0209 31.0425 63.4196 42.6363 63.4196Z" stroke="#3E3A37" stroke-miterlimit="10" stroke-linecap="round" stroke-linejoin="round"/>
<path d="M55.6587 44.5104C56.8249 37.3244 51.945 30.5536 44.759 29.3874C37.5731 28.2211 30.8023 33.1011 29.6361 40.287C28.4699 47.473 33.3498 54.2438 40.5358 55.41C47.7217 56.5763 54.4925 51.6963 55.6587 44.5104Z" stroke="#3E3A37" stroke-miterlimit="10" stroke-linecap="round" stroke-linejoin="round"/>
<path d="M67.8134 16.6225C71.7887 20.5979 71.3005 27.4326 69.557 29.1065C67.8134 30.85 65.5119 26.7352 61.6063 22.8296C57.631 18.8543 53.5859 16.5528 55.3295 14.879C57.0033 13.1354 63.9078 12.7169 67.8134 16.6225Z" stroke="#3E3A37" stroke-miterlimit="10" stroke-linecap="round" stroke-linejoin="round"/>
</svg>
