<svg width="86" height="86" viewBox="0 0 86 86" fill="none" xmlns="http://www.w3.org/2000/svg">
<path d="M39.7421 55.914C39.4608 55.914 39.1796 55.914 38.8983 55.8437C36.2264 55.5624 33.7655 54.0156 31.9374 51.414C29.9686 48.6015 29.1249 44.9453 29.4765 41.1484C30.1796 34.1172 35.1718 28.6328 40.7264 28.6328C41.0077 28.6328 41.2889 28.6328 41.5702 28.7031C44.242 28.9844 46.703 30.5312 48.5311 33.1328C50.4998 35.9453 51.3436 39.6015 50.992 43.3984C50.2889 50.3593 45.367 55.914 39.7421 55.914Z" stroke="#3E3A37" stroke-miterlimit="10" stroke-linecap="round" stroke-linejoin="round"/>
<path d="M68.078 67.867C66.8123 69.1326 65.4764 70.3279 63.9998 71.3826C58.0936 75.742 50.8514 78.3435 42.9061 78.3435C23.3593 78.4139 7.53905 62.5233 7.53905 42.9765C7.53905 23.4296 23.3593 7.53905 42.9061 7.53905C60.9061 7.53905 75.5311 20.9687 77.992 38.2655C80.9451 58.7264 56.9686 61.328 59.2889 49.0936L63.2967 25.1874L57.0389 24.0624L55.492 34.1874C53.2421 28.0702 48.3202 23.6406 42.203 23.0078C33.1327 22.0937 24.9062 29.9687 23.7812 40.5858C22.7265 51.203 29.1952 60.6248 38.2655 61.5389C44.3827 62.1717 50.1483 58.7967 53.5936 53.2421C54.7889 57.2499 58.3045 60.8358 64.4217 61.6795C77.2186 63.367 86.3592 50.8514 84.531 37.4921C81.8592 16.8203 64.2811 1 42.9765 1C19.7734 1 1 19.7734 1 42.9765C1 66.1795 19.7734 84.9529 42.9765 84.9529C52.328 84.9529 60.9764 81.8592 67.9373 76.7264C69.6248 75.4607 71.242 74.0545 72.7889 72.5076C73.9842 71.3123 75.1092 69.9764 76.0936 68.5701C76.867 67.4451 77.6404 66.3201 78.2732 65.0545" stroke="#3E3A37" stroke-miterlimit="10" stroke-linecap="round" stroke-linejoin="round"/>
</svg>
