<svg width="96" height="87" viewBox="0 0 96 87" fill="none" xmlns="http://www.w3.org/2000/svg">
<path d="M86.6909 22.5161C91.9205 27.7457 95.1329 34.9178 95.1329 42.8369C95.1329 50.756 91.9205 57.928 86.6909 63.1576" stroke="#3E3A37" stroke-miterlimit="10" stroke-linecap="round" stroke-linejoin="round"/>
<path d="M9.44208 63.0829C4.21247 57.8533 1 50.6813 1 42.7622C1 34.843 4.28718 27.7457 9.44208 22.5161" stroke="#3E3A37" stroke-miterlimit="10" stroke-linecap="round" stroke-linejoin="round"/>
<path d="M81.7601 27.4468C85.7196 31.4063 88.1103 36.8601 88.1103 42.8368C88.1103 48.8135 85.6449 54.2672 81.7601 58.2267" stroke="#3E3A37" stroke-miterlimit="10" stroke-linecap="round" stroke-linejoin="round"/>
<path d="M14.3729 58.2267C10.4133 54.2672 8.02264 48.8135 8.02264 42.8368C8.02264 36.8601 10.488 31.4063 14.3729 27.4468" stroke="#3E3A37" stroke-miterlimit="10" stroke-linecap="round" stroke-linejoin="round"/>
<path d="M76.9041 32.3027C79.5936 34.9922 81.2372 38.7277 81.2372 42.7619C81.2372 46.7962 79.5936 50.5316 76.9041 53.2212" stroke="#3E3A37" stroke-miterlimit="10" stroke-linecap="round" stroke-linejoin="round"/>
<path d="M19.2289 53.2959C16.5394 50.6064 14.8958 46.8709 14.8958 42.8367C14.8958 38.8024 16.5394 35.067 19.2289 32.3774" stroke="#3E3A37" stroke-miterlimit="10" stroke-linecap="round" stroke-linejoin="round"/>
<path d="M66.8931 86.2426H29.2399C26.2516 86.2426 23.8609 83.8519 23.8609 80.8636V6.37902C23.8609 3.39068 26.2516 1 29.2399 1H66.9678C69.9561 1 72.3468 3.39068 72.3468 6.37902V80.8636C72.2721 83.8519 69.8814 86.2426 66.8931 86.2426Z" stroke="#3E3A37" stroke-miterlimit="10" stroke-linecap="round" stroke-linejoin="round"/>
<path d="M65.9218 7.72363H30.1364V73.7661H65.9218V7.72363Z" stroke="#3E3A37" stroke-miterlimit="10" stroke-linecap="round" stroke-linejoin="round"/>
<path d="M49.5606 84.0763C51.3348 84.0763 52.7731 82.638 52.7731 80.8638C52.7731 79.0896 51.3348 77.6514 49.5606 77.6514C47.7864 77.6514 46.3481 79.0896 46.3481 80.8638C46.3481 82.638 47.7864 84.0763 49.5606 84.0763Z" stroke="#3E3A37" stroke-miterlimit="10" stroke-linecap="round" stroke-linejoin="round"/>
</svg>
