<svg width="150" height="151" viewBox="0 0 150 151" fill="none" xmlns="http://www.w3.org/2000/svg">
<path d="M114.722 106.908C134.691 82.979 136.754 52.0419 103.755 26.6053C81.8526 9.72273 49.7873 31.074 31.569 47.2298C13.1575 63.5569 8.88236 92.2584 31.5689 109.789C54.2554 127.32 100.943 123.42 114.722 106.908Z" fill="#00AFE5"/>
<path d="M14.7258 37.6047C14.3357 32.4476 17.1321 26.9477 21.2569 25.9176C28.1517 24.1955 33.9753 27.244 33.9753 35.1986C33.9753 39.5734 31.2255 43.895 26.7569 45.166C18.5349 47.5047 15.1159 42.7618 14.7258 37.6047Z" fill="#00AFE5"/>
<path d="M39.1485 23.8542C38.926 20.8892 40.9027 16.2921 44.3046 16.292C48.5096 16.2919 51.5232 18.0096 51.5232 22.5831C51.5232 25.0984 49.9548 27.5831 47.4061 28.3139C42.7167 29.6585 39.371 26.8193 39.1485 23.8542Z" fill="#00AFE5"/>
</svg>
