<svg width="29" height="29" viewBox="0 0 29 29" fill="none" xmlns="http://www.w3.org/2000/svg">
<path d="M9.47344 25.7839H7.25736C5.26741 25.7839 3.63927 24.1558 3.63927 22.1658V6.67588C3.63927 4.68593 5.26741 3.05779 7.25736 3.05779H22.589C24.579 3.05779 26.2071 4.68593 26.2071 6.67588V22.1658C26.2071 24.1558 24.579 25.7839 22.589 25.7839H16.5739L16.5287 16.7387H20.1016V13.1206H16.5287V11.3568C16.5287 10.5879 17.1393 9.97739 17.9081 9.97739H20.1016V5.70352H16.0312C13.5664 5.70352 11.5765 7.69347 11.5765 10.1583V13.1206H9.7448V16.7613H11.5765V28H6.87294C3.88801 28 1.4458 25.5804 1.4458 22.5729V6.42714C1.4458 3.44221 3.8654 1 6.87294 1H23.0187C26.0036 1 28.4458 3.4196 28.4458 6.42714V22.5729C28.4458 25.5578 26.0262 28 23.0187 28H14.2448" stroke="white" stroke-miterlimit="10" stroke-linecap="round" stroke-linejoin="round"/>
</svg>
