<svg width="1393" height="862" viewBox="0 0 1393 862" fill="none" xmlns="http://www.w3.org/2000/svg">
<path d="M860.977 861H1V1.01978H860.977V861Z" stroke="white" stroke-miterlimit="1.41421" stroke-linecap="round" stroke-linejoin="round"/>
<path d="M1392.19 861H860.977V329.788H1392.19V861Z" stroke="white" stroke-miterlimit="1.41421" stroke-linecap="round" stroke-linejoin="round"/>
<path d="M1392.19 329.788H1063.4V0.999969H1392.19V329.788Z" stroke="white" stroke-miterlimit="1.41421" stroke-linecap="round" stroke-linejoin="round"/>
<path d="M1063.34 203.401H860.974V1.03011H1063.34V203.401Z" stroke="white" stroke-miterlimit="1.41421" stroke-linecap="round" stroke-linejoin="round"/>
<path d="M987.226 329.788H860.974V203.397H987.226V329.788Z" stroke="white" stroke-miterlimit="1.41421" stroke-linecap="round" stroke-linejoin="round"/>
<path d="M1063.4 329.788H987.225V253.613H1063.4V329.788Z" stroke="white" stroke-miterlimit="1.41421" stroke-linecap="round" stroke-linejoin="round"/>
<path d="M1063.4 253.614H1013.03V203.381H1063.4V253.614Z" stroke="white" stroke-miterlimit="1.41421" stroke-linecap="round" stroke-linejoin="round"/>
<path d="M1013.03 229.192H987.225V203.385H1013.03V229.192Z" stroke="white" stroke-miterlimit="1.41421" stroke-linecap="round" stroke-linejoin="round"/>
<path d="M1 1.5C1 475.247 387.18 861 860.927 861H860.974C1153.75 861 1392.19 622.584 1392.19 329.808C1392.19 148.871 1244.29 1.01978 1063.36 1.01978H1063.34C951.528 1.01978 860.974 91.5579 860.974 203.374C860.974 272.475 918.124 329.808 987.225 329.808C1029.93 329.808 1063.4 296.311 1063.4 253.606C1063.4 227.216 1039.43 203.377 1013.03 203.377C996.721 203.377 987.225 212.873 987.225 229.184" stroke="white" stroke-miterlimit="1.41421" stroke-linecap="square"/>
</svg>
