<svg width="28" height="28" viewBox="0 0 28 28" fill="none" xmlns="http://www.w3.org/2000/svg">
<path fill-rule="evenodd" clip-rule="evenodd" d="M5.86749 1C3.1705 1 1 3.19015 1 5.86749V21.8134C1 24.5104 3.19015 26.6809 5.86749 26.6809C5.91913 26.6809 5.96894 26.6887 6.0158 26.7032H21.8358C24.5327 26.7032 26.7032 24.5131 26.7032 21.8358V5.86749C26.7032 3.1705 24.5131 1 21.8358 1H5.86749ZM5.71286 27.6789C5.76155 27.6947 5.81352 27.7032 5.86749 27.7032H21.8358C25.0877 27.7032 27.7032 25.0627 27.7032 21.8358V5.86749C27.7032 2.61551 25.0627 0 21.8358 0H5.86749C2.61551 0 0 2.64058 0 5.86749V21.8134C0 25.0133 2.55666 27.5969 5.71286 27.6789ZM6.27004 3.03519C4.57811 3.03519 3.19172 4.42158 3.19172 6.11352V21.4332C3.19172 23.1252 4.57811 24.5115 6.27004 24.5115H21.4332C23.1251 24.5115 24.5115 23.1252 24.5115 21.4332V6.11352C24.5115 4.42158 23.1251 3.03519 21.4332 3.03519H6.27004ZM2.19172 6.11352C2.19172 3.8693 4.02582 2.03519 6.27004 2.03519H21.4332C23.6774 2.03519 25.5115 3.8693 25.5115 6.11352V21.4332C25.5115 23.6774 23.6774 25.5115 21.4332 25.5115H6.27004C4.02582 25.5115 2.19172 23.6774 2.19172 21.4332V6.11352ZM7.61988 13.7845C7.61988 10.3428 10.4099 7.5528 13.8516 7.5528C17.2933 7.5528 20.0833 10.3428 20.0833 13.7845C20.0833 17.2262 17.2933 20.0162 13.8516 20.0162C10.4099 20.0162 7.61988 17.2262 7.61988 13.7845ZM13.8516 6.5528C9.85763 6.5528 6.61988 9.79055 6.61988 13.7845C6.61988 17.7785 9.85763 21.0162 13.8516 21.0162C17.8456 21.0162 21.0833 17.7785 21.0833 13.7845C21.0833 9.79055 17.8456 6.5528 13.8516 6.5528ZM10.1763 13.1783C9.8466 15.21 11.2264 17.1244 13.2581 17.4542C15.2899 17.7839 17.2042 16.4042 17.534 14.3724C17.8637 12.3406 16.4839 10.4263 14.4522 10.0965C12.4204 9.76678 10.5061 11.1465 10.1763 13.1783ZM13.0979 18.4413C10.521 18.023 8.77102 15.595 9.18923 13.0181C9.60745 10.4412 12.0355 8.69121 14.6124 9.10943C17.1893 9.52765 18.9393 11.9557 18.5211 14.5326C18.1029 17.1095 15.6748 18.8595 13.0979 18.4413ZM18.593 5.59388C18.4387 5.44062 18.3557 5.3359 18.3152 5.2697C18.3752 5.22667 18.5004 5.16286 18.713 5.11253C18.9614 5.05372 19.2769 5.02615 19.6211 5.04968C20.3162 5.09719 21.0547 5.34633 21.5717 5.86328C22.1007 6.39232 22.3487 7.13126 22.3935 7.82053C22.4158 8.16249 22.3865 8.47532 22.3263 8.72182C22.2739 8.93684 22.2077 9.06313 22.1634 9.12275C22.0958 9.08351 21.9869 8.9984 21.8255 8.83474C21.6582 8.66522 21.4743 8.45405 21.2571 8.20481L21.1596 8.09289C20.9045 7.80064 20.6142 7.47249 20.2883 7.14662C19.9575 6.81582 19.6272 6.52176 19.334 6.26398L19.2284 6.17128L19.2284 6.17125C18.9759 5.94957 18.7629 5.76264 18.593 5.59388ZM22.2788 5.15617C21.5433 4.42071 20.5485 4.11073 19.6893 4.05201C19.2564 4.02242 18.8394 4.05496 18.4826 4.13942C18.1451 4.21933 17.7999 4.36031 17.5684 4.59701C17.4449 4.71779 17.3458 4.87134 17.3063 5.05921C17.2664 5.24909 17.2975 5.42615 17.3543 5.57465C17.4586 5.84762 17.6782 6.09472 17.8883 6.30338C18.0819 6.49563 18.3208 6.70531 18.569 6.92309L18.6737 7.01499C18.9648 7.27089 19.2746 7.54712 19.5812 7.85372C19.8815 8.15405 20.1531 8.4605 20.4062 8.75043L20.5018 8.86018L20.5019 8.86025C20.7157 9.10579 20.9227 9.34359 21.1136 9.53705C21.3228 9.74913 21.5708 9.97059 21.8461 10.0769C21.9953 10.1345 22.1722 10.1664 22.3622 10.129C22.552 10.0916 22.7091 9.99413 22.8343 9.87011C23.0713 9.64046 23.2153 9.29728 23.2979 8.95877C23.3845 8.60352 23.4195 8.18811 23.3914 7.75569C23.3356 6.89622 23.0245 5.90191 22.2788 5.15617Z" fill="white"/>
</svg>
