<svg width="190" height="40" viewBox="0 0 190 40" fill="none" xmlns="http://www.w3.org/2000/svg">
<path d="M36.5162 27.8055C38.1296 26.4815 40.669 24.2229 40.669 20.037C40.669 14.1296 34.9074 9.83332 29 9.83332C23.0926 9.83332 17.1602 13.5926 17.1602 20.037C17.1602 26.4815 21.4815 32.3889 30.6111 34.537C33.8333 35.2952 38.3749 36.0289 42.8171 36.0289C47.2593 36.0289 52.5733 36.8041 55.0936 34.4011C57.6139 31.9981 56.8009 28.5486 56.8009 26.4169V16.1847C56.8009 14.1568 57.4225 9.76997 55.0936 7.8129C52.6952 5.79747 47.0281 6.18505 42.8171 6.18505C41.1098 6.18505 35.9318 2.85184 29 2.85184C22.0683 2.85184 16.8969 6.18505 15.012 6.18505C11.3769 6.18505 4.99162 5.85042 2.81682 7.8129C0.411534 9.98336 1.1965 14.5181 1.1965 16.2235C1.1965 16.9431 1.1965 24.5266 1.1965 27.8055C1.1965 28.7651 0.677696 32.6335 2.81683 34.4011C5.25587 36.4165 13.6105 36.0255 15.012 36.0255C18.6706 36.0255 14.5749 36.0255 19.4023 36.0255" stroke="#4E4E4E" stroke-width="2" stroke-linecap="round" stroke-linejoin="round"/>
<path fill-rule="evenodd" clip-rule="evenodd" d="M19.7605 3.50403C22.2085 2.65225 25.3634 1.77777 29 1.77777C32.6365 1.77777 35.7933 2.65211 38.2234 3.50498C39.0377 3.79076 39.7955 4.08377 40.4467 4.33559C40.753 4.45401 41.0357 4.56332 41.2896 4.65848C41.7002 4.81235 42.0371 4.93024 42.313 5.0092C42.6019 5.09188 42.7549 5.11099 42.8171 5.11099C43.3605 5.11099 43.94 5.10408 44.5412 5.09691C46.2014 5.07713 48.0266 5.05538 49.7092 5.17168C51.9548 5.3269 54.2949 5.73878 55.7846 6.99062C57.289 8.25478 57.7489 10.2131 57.8908 11.8812C57.99 13.0471 57.9402 14.2997 57.9031 15.2325C57.888 15.6119 57.875 15.9384 57.875 16.1847V26.4169C57.875 26.7704 57.899 27.1539 57.9271 27.6023C57.9382 27.7794 57.9499 27.9666 57.961 28.166C57.9986 28.8402 58.0248 29.6036 57.9632 30.391C57.8389 31.9805 57.3504 33.7334 55.8348 35.1785C54.2732 36.6674 51.9626 37.0807 49.728 37.189C48.5834 37.2445 47.388 37.2213 46.2225 37.1861C45.9591 37.1782 45.6979 37.1696 45.4388 37.1611C44.5376 37.1316 43.663 37.103 42.8171 37.103C38.2699 37.103 33.6431 36.3539 30.3651 35.5826C20.8356 33.3403 16.0861 27.0626 16.0861 20.037C16.0861 12.7725 22.7552 8.75926 29 8.75926C35.307 8.75926 41.743 13.3598 41.743 20.037C41.743 24.7401 38.8528 27.2775 37.1976 28.6358C36.7391 29.0122 36.0623 28.9455 35.686 28.4869C35.3096 28.0284 35.3763 27.3516 35.8349 26.9753C37.4065 25.6855 39.5949 23.7057 39.5949 20.037C39.5949 14.8994 34.5078 10.9074 29 10.9074C23.43 10.9074 18.2343 14.4127 18.2343 20.037C18.2343 25.9004 22.1273 31.4375 30.8571 33.4915C34.0237 34.2366 38.4799 34.9549 42.8171 34.9549C43.7017 34.9549 44.6236 34.9851 45.5307 35.0148C45.7845 35.0231 46.0371 35.0314 46.2874 35.0389C47.4464 35.074 48.5698 35.0944 49.624 35.0433C51.7871 34.9385 53.3937 34.5379 54.3524 33.6237C55.3572 32.6658 55.7223 31.4924 55.8216 30.2235C55.8718 29.5817 55.8523 28.9328 55.8162 28.2856C55.8074 28.1275 55.7972 27.9653 55.7869 27.8018C55.7572 27.3276 55.7269 26.8429 55.7269 26.4169V16.1847C55.7269 15.7935 55.744 15.378 55.7621 14.9407C55.7985 14.0631 55.8384 13.0974 55.7504 12.0633C55.6209 10.5417 55.2272 9.32811 54.4026 8.6352C53.4939 7.87161 51.8013 7.46956 49.561 7.31472C47.9722 7.2049 46.2845 7.22498 44.6513 7.24442C44.0292 7.25183 43.4149 7.25914 42.8171 7.25914C42.4525 7.25914 42.0702 7.17408 41.7221 7.07447C41.361 6.97114 40.959 6.82863 40.5358 6.67001C40.2444 6.56081 39.942 6.44381 39.6246 6.32105C38.9904 6.07569 38.2966 5.80728 37.512 5.53193C35.1934 4.71819 32.2953 3.92592 29 3.92592C25.7049 3.92592 22.8082 4.71805 20.4664 5.53287C19.7203 5.79248 19.0652 6.04119 18.4569 6.27212C18.0857 6.41306 17.7319 6.54737 17.3856 6.67349C16.5654 6.97215 15.7065 7.25914 15.012 7.25914C14.5565 7.25914 14.0677 7.25422 13.556 7.24907C11.9683 7.23309 10.1603 7.2149 8.4414 7.33454C7.31213 7.41314 6.26739 7.54917 5.39351 7.77154C4.50182 7.99844 3.89127 8.29008 3.53639 8.61032C2.65401 9.40655 2.27586 10.7224 2.17652 12.2618C2.12827 13.0096 2.14886 13.7562 2.18408 14.4398C2.19436 14.6393 2.20658 14.8421 2.21854 15.0407C2.24518 15.4829 2.27057 15.9045 2.27057 16.2235L2.27058 27.8056C2.27058 27.9945 2.25966 28.212 2.24741 28.4563C2.21756 29.0516 2.17976 29.8053 2.27266 30.6879C2.40104 31.9074 2.76115 32.9618 3.501 33.5731C3.904 33.9061 4.67101 34.2168 5.7799 34.4551C6.85352 34.6858 8.11037 34.8215 9.36786 34.8969C11.3619 35.0166 13.2515 34.9813 14.3325 34.9611C14.6211 34.9557 14.8521 34.9514 15.012 34.9514H19.4023C19.9955 34.9514 20.4764 35.4323 20.4764 36.0255C20.4764 36.6187 19.9955 37.0996 19.4023 37.0996H15.012C14.8861 37.0996 14.6882 37.1033 14.4317 37.1082C13.3788 37.1283 11.3386 37.1672 9.23917 37.0412C7.92792 36.9625 6.55119 36.818 5.32853 36.5553C4.14114 36.3001 2.94918 35.9038 2.13265 35.2291C0.733373 34.0728 0.283322 32.3092 0.136319 30.9128C0.0227709 29.8341 0.0792544 28.7219 0.108538 28.1453C0.116484 27.9888 0.122427 27.8718 0.122427 27.8056L0.122424 16.2235C0.122424 15.9696 0.103491 15.6574 0.0795716 15.2628C0.0666939 15.0504 0.0523708 14.8142 0.0387788 14.5504C0.00198585 13.8362 -0.0233297 12.9938 0.032833 12.1234C0.142339 10.4265 0.574348 8.38973 2.09726 7.0155C2.82978 6.3545 3.83294 5.95204 4.86377 5.68973C5.91239 5.4229 7.09895 5.27463 8.29225 5.19157C10.1059 5.06534 12.0419 5.08502 13.6422 5.10129C14.1351 5.1063 14.5962 5.11099 15.012 5.11099C15.26 5.11099 15.7544 4.98132 16.6506 4.655C16.9415 4.54907 17.2733 4.42325 17.6351 4.28611C18.2712 4.04495 18.9997 3.76875 19.7605 3.50403Z" fill="white"/>
<path d="M86.0403 16.116H82.9856V9.81706H76.0547V16.116H73V0.610933H76.0547V6.86773H82.9856V0.610933H86.0403V16.116Z" fill="white"/>
<path d="M89.0864 8.38453C89.0864 6.98009 89.4375 5.66693 90.1397 4.44507C90.856 3.2232 91.818 2.25413 93.0259 1.53787C94.2477 0.807556 95.5679 0.4424 96.9864 0.4424C98.4049 0.4424 99.718 0.807556 100.926 1.53787C102.148 2.25413 103.117 3.2232 103.833 4.44507C104.563 5.66693 104.929 6.98009 104.929 8.38453C104.929 9.81706 104.563 11.1372 103.833 12.3451C103.117 13.5529 102.148 14.5149 100.926 15.2312C99.718 15.9334 98.4049 16.2845 96.9864 16.2845C95.5539 16.2845 94.2337 15.9334 93.0259 15.2312C91.818 14.5149 90.856 13.5529 90.1397 12.3451C89.4375 11.1372 89.0864 9.81706 89.0864 8.38453ZM92.2464 8.38453C92.2464 9.28338 92.4571 10.112 92.8784 10.8704C93.3138 11.6288 93.8966 12.2327 94.6269 12.6821C95.3713 13.1175 96.1929 13.3352 97.0917 13.3352C97.9625 13.3352 98.756 13.1175 99.4723 12.6821C100.189 12.2327 100.75 11.6358 101.158 10.8915C101.565 10.1331 101.769 9.29742 101.769 8.38453C101.769 7.4576 101.558 6.61493 101.137 5.85653C100.715 5.09813 100.139 4.50124 99.4091 4.06587C98.6928 3.61644 97.8923 3.39173 97.0075 3.39173C96.1227 3.39173 95.3151 3.61644 94.5848 4.06587C93.8685 4.50124 93.2997 5.09813 92.8784 5.85653C92.4571 6.61493 92.2464 7.4576 92.2464 8.38453Z" fill="white"/>
<path d="M116.337 16.116L113.072 11.1864H111.029V16.116H107.974V0.610933H112.672C114.596 0.610933 116.085 1.08142 117.138 2.0224C118.205 2.94933 118.739 4.22035 118.739 5.83547C118.739 6.79049 118.535 7.68933 118.128 8.532C117.735 9.36062 117.124 10.0137 116.295 10.4912L119.898 16.116H116.337ZM111.029 8.23707H113.199C114.027 8.23707 114.631 7.99831 115.01 7.5208C115.389 7.02924 115.579 6.50258 115.579 5.9408C115.579 5.37902 115.418 4.84533 115.095 4.33973C114.771 3.82009 114.147 3.56027 113.22 3.56027H111.029V8.23707Z" fill="white"/>
<path d="M132.992 0.610933V3.56027H125.471V6.86773H132.128V9.81706H125.471V13.1667H133.287V16.116H122.416V0.610933H132.992Z" fill="white"/>
<path d="M145.843 0.610933V3.56027H142.072V16.116H139.017V3.56027H135.394V0.610933H145.843Z" fill="white"/>
<path d="M157.07 4.3608C155.722 3.61644 154.549 3.24427 153.552 3.24427C152.878 3.24427 152.351 3.37769 151.972 3.64453C151.607 3.91138 151.424 4.31164 151.424 4.84533C151.424 5.33689 151.691 5.77227 152.225 6.15147C152.772 6.51662 153.496 6.86773 154.394 7.2048C155.125 7.47164 155.75 7.78062 156.269 8.13173C156.789 8.4688 157.217 8.93929 157.554 9.5432C157.905 10.1471 158.081 10.9125 158.081 11.8395C158.081 12.64 157.87 13.3844 157.449 14.0725C157.042 14.7467 156.438 15.2874 155.637 15.6947C154.837 16.0879 153.882 16.2845 152.772 16.2845C151.845 16.2845 150.925 16.1511 150.013 15.8843C149.1 15.6034 148.25 15.182 147.463 14.6203L148.812 12.2397C149.345 12.633 149.956 12.956 150.645 13.2088C151.333 13.4616 151.951 13.588 152.498 13.588C153.144 13.588 153.706 13.4546 154.184 13.1877C154.661 12.9068 154.9 12.4574 154.9 11.8395C154.9 11.0389 154.149 10.3437 152.646 9.75387C151.761 9.40275 151.024 9.06569 150.434 8.74267C149.844 8.41964 149.331 7.95618 148.896 7.35227C148.475 6.74835 148.264 5.98995 148.264 5.07706C148.264 3.74284 148.699 2.66844 149.57 1.85387C150.455 1.03929 151.628 0.596889 153.088 0.526667C154.24 0.526667 155.202 0.660089 155.974 0.926934C156.747 1.17973 157.498 1.54489 158.229 2.0224L157.07 4.3608Z" fill="white"/>
<path d="M164.085 6.90987L164.549 6.32L169.605 0.610933H173.565L167.161 7.56293L173.586 16.116H169.71L164.928 9.50107L164.169 10.2595V16.116H161.073V0.610933H164.169V6.1304L164.085 6.90987Z" fill="white"/>
<path d="M183.574 13.0824H178.434L177.17 16.116H174.157L181.151 0H181.32L188.314 16.116H184.775L183.574 13.0824ZM182.563 10.5123L181.067 6.74133L179.508 10.5123H182.563Z" fill="white"/>
<path d="M76.4549 23.9054C77.8734 23.9054 78.997 24.2706 79.8256 25.0009C80.6683 25.7171 81.0896 26.7635 81.0896 28.1398C81.0896 28.9263 80.9211 29.6566 80.584 30.3307C80.247 31.0049 79.7203 31.5526 79.004 31.9739C78.3018 32.3812 77.417 32.5849 76.3496 32.5849H74.0323V38.8627H73V23.9054H76.4549ZM76.3496 31.5947C77.2485 31.5947 77.9788 31.4122 78.5406 31.047C79.1023 30.6819 79.4956 30.2395 79.7203 29.7198C79.959 29.1861 80.0784 28.6595 80.0784 28.1398C80.0784 27.1707 79.7694 26.3913 79.1515 25.8014C78.5335 25.1975 77.6698 24.8955 76.5603 24.8955H74.0323V31.5947H76.3496Z" fill="white"/>
<path d="M95.7459 38.8627H94.7137V31.8265H85.6971V38.8627H84.6649V23.9054H85.6971V30.8574H94.7137V23.9054H95.7459V38.8627Z" fill="white"/>
<path d="M99.558 31.4051C99.558 30.0288 99.9021 28.7578 100.59 27.5921C101.278 26.4123 102.205 25.4784 103.371 24.7902C104.537 24.088 105.808 23.7369 107.184 23.7369C108.56 23.7369 109.839 24.088 111.018 24.7902C112.198 25.4784 113.132 26.4123 113.82 27.5921C114.508 28.7578 114.852 30.0288 114.852 31.4051C114.852 32.7815 114.508 34.0595 113.82 35.2393C113.132 36.405 112.198 37.3319 111.018 38.0201C109.839 38.6942 108.56 39.0313 107.184 39.0313C105.794 39.0313 104.516 38.7012 103.35 38.0411C102.184 37.3811 101.257 36.4682 100.569 35.3025C99.8951 34.1368 99.558 32.8377 99.558 31.4051ZM100.611 31.4262C100.611 32.62 100.906 33.7225 101.496 34.7337C102.086 35.7449 102.88 36.5524 103.877 37.1563C104.874 37.7462 105.969 38.0411 107.163 38.0411C108.371 38.0411 109.48 37.7462 110.492 37.1563C111.517 36.5665 112.324 35.7659 112.914 34.7547C113.504 33.7295 113.799 32.613 113.799 31.4051C113.799 30.1973 113.497 29.0878 112.893 28.0766C112.303 27.0514 111.503 26.2368 110.492 25.6329C109.48 25.029 108.378 24.727 107.184 24.727C105.976 24.727 104.867 25.036 103.856 25.6539C102.844 26.2579 102.051 27.0724 101.475 28.0977C100.899 29.1229 100.611 30.2324 100.611 31.4262Z" fill="white"/>
<path d="M126.506 23.9054V24.8955H122.103V38.8627H121.071V24.8955H116.71V23.9054H126.506Z" fill="white"/>
<path d="M128.36 31.4051C128.36 30.0288 128.704 28.7578 129.392 27.5921C130.081 26.4123 131.007 25.4784 132.173 24.7902C133.339 24.088 134.61 23.7369 135.986 23.7369C137.363 23.7369 138.641 24.088 139.82 24.7902C141 25.4784 141.934 26.4123 142.622 27.5921C143.31 28.7578 143.654 30.0288 143.654 31.4051C143.654 32.7815 143.31 34.0595 142.622 35.2393C141.934 36.405 141 37.3319 139.82 38.0201C138.641 38.6942 137.363 39.0313 135.986 39.0313C134.596 39.0313 133.318 38.7012 132.152 38.0411C130.986 37.3811 130.059 36.4682 129.371 35.3025C128.697 34.1368 128.36 32.8377 128.36 31.4051ZM129.413 31.4262C129.413 32.62 129.708 33.7225 130.298 34.7337C130.888 35.7449 131.682 36.5524 132.679 37.1563C133.676 37.7462 134.771 38.0411 135.965 38.0411C137.173 38.0411 138.282 37.7462 139.294 37.1563C140.319 36.5665 141.126 35.7659 141.716 34.7547C142.306 33.7295 142.601 32.613 142.601 31.4051C142.601 30.1973 142.299 29.0878 141.695 28.0766C141.105 27.0514 140.305 26.2368 139.294 25.6329C138.282 25.029 137.18 24.727 135.986 24.727C134.778 24.727 133.669 25.036 132.658 25.6539C131.646 26.2579 130.853 27.0724 130.277 28.0977C129.701 29.1229 129.413 30.2324 129.413 31.4262Z" fill="white"/>
</svg>
