<svg width="380" height="557" viewBox="0 0 380 557" fill="none" xmlns="http://www.w3.org/2000/svg">
<g style="mix-blend-mode:multiply">
<path d="M328.479 124.615C342.292 136.755 348.99 181.405 347.874 185.87C346.757 190.335 261.782 176.8 265.689 189.637C269.596 202.474 333.362 196.335 342.013 197.451C357.222 199.544 369.082 220.753 371.594 228.009C376.617 242.52 378.571 269.45 379.966 274.054C381.361 278.659 339.502 296.379 328.339 294.844C317.176 293.31 299.177 278.101 297.502 272.798C295.968 267.496 274.061 242.38 274.48 254.659C274.898 266.938 311.456 306.147 313.549 307.961C315.781 309.774 276.433 319.681 265.131 322.332C256.201 324.286 233.597 320.239 228.574 293.449C221.876 258.287 218.527 235.962 204.435 228.009C185.598 217.265 208.9 285.914 214.76 294.007C220.481 302.24 222.155 313.263 229.411 323.449C236.527 333.634 112.204 339.216 118.762 303.356C125.32 267.636 144.994 253.403 138.575 240.567C132.157 227.59 120.297 230.939 121.413 246.566C122.669 264.845 115.553 291.077 111.367 306.426C107.599 319.96 42.8565 292.891 38.3914 277.822C33.7869 262.752 74.3907 229.962 79.2744 217.683C84.158 205.544 74.3907 188.8 69.0885 201.498C63.7863 214.195 53.4609 251.59 27.2289 265.822C27.2289 265.822 -3.32861 248.52 0.299194 222.148C3.92703 195.777 29.7405 166.615 67.8327 153.499C105.925 140.383 95.7391 126.987 92.1113 117.918C92.1113 117.918 62.2515 31.8266 103.413 10.8968C157.831 -16.7306 220.62 16.3385 229.55 20.9431C246.992 30.0126 240.852 41.8729 240.852 41.8729C240.852 41.8729 174.296 55.9656 152.668 87.6394C146.529 96.5694 156.436 102.011 162.575 97.6857C168.714 93.3602 195.365 63.9189 216.434 60.1516C237.504 56.2447 277.828 60.8492 287.177 66.9886C309.363 81.779 314.107 108.43 314.107 108.43C314.107 108.43 274.759 118.616 253.968 120.708C233.178 122.801 208.481 133.545 210.155 139.685C211.551 144.429 218.946 143.173 234.155 139.127C242.806 136.755 314.107 112.197 328.479 124.615ZM138.436 170.103C134.669 178.754 128.529 188.661 127.552 198.428C126.018 206.66 131.041 218.241 139.831 208.893C144.296 203.591 145.552 190.195 145.692 184.335C145.971 174.986 146.529 151.266 138.436 170.103ZM188.528 176.103C183.505 181.405 181.412 196.195 180.156 203.591C179.319 209.869 185.737 222.985 194.109 217.265C199.132 213.776 196.9 198.149 195.923 192.707C195.923 189.079 194.667 184.614 193.691 181.544C192.295 177.358 191.04 174.01 188.528 176.103ZM193.97 128.104C199.551 127.825 225.364 120.011 212.109 111.499C203.597 105.779 183.086 127.266 193.97 128.104ZM250.062 203.032C241.969 198.428 244.341 214.055 250.341 216.986C254.387 218.939 258.154 216.707 256.759 212.102C255.922 210.288 251.457 204.009 250.062 203.032ZM254.248 169.684C249.085 173.591 249.085 177.917 255.782 179.172C258.573 179.451 270.015 177.219 272.247 176.103C283.549 168.708 261.922 164.103 254.248 169.684Z" fill="#EFE0DE"/>
</g>
<g style="mix-blend-mode:multiply">
<path fill-rule="evenodd" clip-rule="evenodd" d="M127.834 131.208C126.058 131.016 124.334 130.865 122.669 130.754C121.389 130.669 120.102 130.584 118.828 130.507C118.783 130.44 118.735 130.371 118.686 130.3L118.684 130.297C118.432 129.933 118.138 129.507 117.924 129.08C117.506 128.522 117.087 127.685 116.669 126.708C116.25 125.732 115.832 124.615 115.552 123.36C115.483 123.22 115.448 123.046 115.413 122.871C115.378 122.697 115.343 122.522 115.273 122.383C115.204 122.243 115.169 122.069 115.134 121.895C115.099 121.72 115.064 121.546 114.994 121.406C114.808 121.034 114.746 120.538 114.684 120.042C114.653 119.794 114.622 119.546 114.576 119.313C114.436 117.918 114.297 116.244 114.297 114.569C114.297 113.015 114.417 111.461 114.546 109.795L114.576 109.406C114.715 107.593 114.855 105.779 115.134 103.965C115.692 100.337 116.25 96.709 116.808 93.3603C117.087 91.6859 117.366 90.0115 117.506 88.4766C117.76 87.0804 117.898 85.6843 118.026 84.3931L118.064 84.0116C118.064 83.6628 118.099 83.3488 118.134 83.0349C118.169 82.7209 118.204 82.407 118.204 82.0582C118.343 81.3605 118.343 80.8024 118.343 80.2442V77.3141C118.268 77.7619 118.234 78.2496 118.196 78.7773L118.196 78.7783L118.196 78.7792C118.164 79.2374 118.129 79.7258 118.064 80.2442C117.994 80.5233 117.959 80.8373 117.925 81.1512C117.89 81.4651 117.855 81.7791 117.785 82.0582C117.712 82.3511 117.677 82.6825 117.64 83.0322L117.64 83.0326V83.033C117.607 83.3492 117.572 83.6804 117.506 84.0116C117.227 85.2674 116.948 86.8022 116.669 88.3371C116.626 88.5708 116.584 88.8076 116.541 89.0473L116.541 89.0481L116.541 89.0484C116.301 90.3825 116.047 91.8016 115.692 93.2207C114.855 96.5695 114.018 100.197 113.32 103.825C112.901 105.639 112.622 107.453 112.343 109.267C112.064 110.941 111.925 112.755 111.785 114.569C111.646 116.383 111.646 118.057 111.785 119.732C111.855 120.15 111.89 120.534 111.925 120.918C111.959 121.302 111.994 121.685 112.064 122.104C112.064 122.313 112.099 122.488 112.134 122.662C112.169 122.836 112.204 123.011 112.204 123.22C112.233 123.307 112.262 123.389 112.29 123.466C112.395 123.761 112.483 124.005 112.483 124.336C112.762 125.732 113.18 126.987 113.599 128.104C113.899 128.903 114.198 129.63 114.498 130.286C111.132 130.156 108.012 130.162 105.507 130.475C103.314 130.749 101.66 130.889 100.23 131.009C99.5288 131.069 98.8818 131.123 98.2517 131.187L98.2506 131.173C98.2506 131.173 98.1111 131.173 97.832 131.034H96.7158C96.2971 131.034 95.739 131.034 94.9018 131.173C94.171 131.173 93.4401 131.28 92.6165 131.399C92.4966 131.417 92.3748 131.435 92.2507 131.452C88.3438 132.01 82.623 132.987 75.7859 135.638C72.2976 136.894 68.6698 138.568 64.7629 140.801L64.7625 140.801C62.8092 141.917 60.8559 143.034 58.9025 144.429C56.9492 145.824 54.9959 147.359 53.0426 148.893L53.0422 148.894C45.2284 155.312 37.4146 163.963 30.8566 174.428C24.1591 184.893 18.5778 197.172 14.6709 210.706C10.764 224.241 8.39196 239.031 7.97335 254.38C7.6943 269.589 7.97338 285.356 8.9501 301.263C9.92681 317.169 11.6012 333.355 13.6942 349.401C15.9267 365.448 18.4383 381.494 21.3684 397.121C24.2986 412.888 27.3683 428.237 30.438 443.027C33.5077 457.818 36.4379 472.19 38.81 485.864C41.182 499.538 43.1354 512.514 43.9726 524.514C44.3912 530.514 44.5308 536.374 44.3912 541.816C44.2517 544.467 44.1122 547.118 43.8331 549.769C43.5544 552.139 43.1361 554.37 42.7179 556.6L42.7178 556.601L42.7177 556.602L42.7176 556.602L42.7175 556.603L42.7174 556.603L42.7173 556.604L42.7172 556.604L42.7171 556.605L42.717 556.605L42.7169 556.606L42.7169 556.606H44.3912C44.8098 554.374 45.2284 552.141 45.5075 549.909C45.7866 547.258 46.0656 544.607 46.2052 541.816C46.4842 536.235 46.4842 530.514 46.0656 524.375C45.2284 512.235 43.4145 499.119 41.182 485.445C38.9495 471.771 36.1588 457.399 33.2287 442.469L32.9187 440.859L32.9186 440.859C27.287 411.606 21.298 380.496 17.4616 348.983C15.5081 333.076 13.9733 317.03 13.1361 301.123C12.2989 285.217 12.1594 269.589 12.5779 254.52C12.9965 239.59 15.5081 225.218 19.5545 212.102C23.4614 198.986 29.0427 187.126 35.4612 177.219C42.0192 167.172 49.4144 159.08 56.391 153.359C58.2049 151.964 60.1583 150.568 61.9723 149.312C63.7862 148.057 65.6001 146.94 67.414 145.964C70.9023 143.871 74.3906 142.336 77.5998 141.22C84.0183 138.847 89.3205 137.871 92.9484 137.452C93.0019 137.445 93.0546 137.437 93.1065 137.429C93.2766 137.404 93.4382 137.38 93.5929 137.356C93.9316 137.304 94.2373 137.257 94.5269 137.224C94.4644 137.362 94.4033 137.485 94.3442 137.591C94.5244 137.546 94.7773 137.472 95.0654 137.388C95.4299 137.281 95.8507 137.158 96.2516 137.056C96.5983 137.034 96.9073 137.034 97.1343 137.034C97.3475 136.98 97.52 136.947 97.6673 136.919C97.9057 136.874 98.0781 136.841 98.2506 136.755C98.5297 136.615 98.6692 136.475 98.6692 136.475L98.6559 136.307C100.589 135.74 103.218 135.291 106.483 135.08C106.705 135.058 106.929 135.037 107.155 135.015C111.168 134.623 115.88 134.164 121.395 134.477C121.196 134.641 120.994 134.82 120.782 135.007C120.502 135.254 120.205 135.516 119.878 135.778C119.181 136.336 118.483 137.033 117.785 137.731L115.553 139.964C114.855 140.801 114.018 141.638 113.181 142.475C111.506 144.289 109.692 146.243 107.879 148.196C105.925 150.289 103.972 152.242 101.739 154.196C99.5066 156.149 97.1345 157.963 94.4834 159.498C91.8323 161.172 89.0417 162.707 86.251 164.242C85.3604 164.754 84.4734 165.263 83.5905 165.769L83.4995 165.821L83.4859 165.829L83.4843 165.83C78.8711 168.474 74.3711 171.054 70.0653 173.73C65.0422 176.94 60.2981 180.149 56.6702 183.219C52.9029 186.288 50.2518 189.358 48.7169 191.73C48.5334 192.036 48.3766 192.315 48.235 192.567C48.0536 192.89 47.8969 193.169 47.7402 193.404C47.7018 193.558 47.6527 193.701 47.5989 193.834C47.6887 193.691 47.7841 193.548 47.8794 193.405L47.8797 193.404C47.9016 193.372 47.9235 193.338 47.9454 193.303C47.9722 193.261 47.999 193.218 48.0261 193.174C48.061 193.117 48.0964 193.058 48.1323 192.998L48.1962 192.89L48.1976 192.888L48.1985 192.886L48.1987 192.886C48.3859 192.57 48.5937 192.22 48.8564 191.87C50.3913 189.637 53.1819 186.707 56.9493 183.777C60.7167 180.847 65.4608 177.777 70.6235 174.847C75.7862 171.916 81.3674 168.986 87.0882 166.056C88.0434 165.556 88.9838 165.07 89.9141 164.59C91.8378 163.597 93.7187 162.626 95.5997 161.591C98.3903 160.056 101.041 158.242 103.413 156.289C105.786 154.335 107.879 152.382 109.832 150.429L115.274 144.987C115.558 144.703 115.826 144.418 116.089 144.139L116.09 144.139C116.601 143.597 117.093 143.075 117.646 142.615C118.064 142.266 118.448 141.882 118.814 141.516L118.815 141.516C119.181 141.149 119.53 140.801 119.878 140.522C120.227 140.243 120.541 139.964 120.855 139.685C121.169 139.405 121.483 139.126 121.832 138.847C122.39 138.289 122.948 137.871 123.506 137.452C123.864 137.273 124.164 137.037 124.444 136.817C124.601 136.694 124.751 136.575 124.901 136.475C125.32 136.196 125.739 135.917 126.018 135.778C126.715 135.499 126.994 135.22 126.994 135.22L126.884 134.971C130.413 135.392 134.129 136.019 137.986 136.854L135.366 141.219C135.118 141.622 134.863 142.039 134.6 142.469L134.598 142.473L134.597 142.475C133.676 143.981 132.652 145.656 131.459 147.498L131.075 148.092C129.626 150.33 127.961 152.902 126.297 155.591C125.345 157.201 124.317 158.85 123.252 160.557L123.251 160.559C122.286 162.106 121.291 163.701 120.297 165.359C119.323 167.028 118.21 168.836 117.097 170.645L117.097 170.646L117.095 170.648L117.094 170.649L117.093 170.652L117.092 170.653L117.09 170.656L117.09 170.657L117.088 170.66L117.087 170.661C116.375 172.086 115.587 173.438 114.78 174.823L114.779 174.825L114.777 174.828L114.777 174.828L114.777 174.829L114.777 174.829L114.777 174.829L114.773 174.836C114.476 175.345 114.177 175.858 113.878 176.382C113.32 177.358 112.797 178.37 112.274 179.381L112.273 179.383C111.75 180.394 111.227 181.405 110.669 182.381C110.529 182.66 110.39 182.905 110.25 183.149L110.25 183.15C110.11 183.394 109.971 183.638 109.832 183.916C109.728 184.33 109.548 184.667 109.348 185.041L109.348 185.042L109.348 185.042C109.323 185.089 109.297 185.137 109.271 185.186C109.226 185.271 109.18 185.359 109.134 185.451C108.768 186.092 108.461 186.734 108.136 187.414L108.136 187.415C107.966 187.771 107.791 188.138 107.599 188.521C107.46 188.939 107.181 189.498 106.902 190.056L106.483 190.893L106.204 191.73C105.995 192.288 105.75 192.812 105.506 193.335L105.506 193.336C105.262 193.859 105.018 194.382 104.809 194.939C104.189 196.268 103.625 197.596 103.046 198.96L103.046 198.96L103.045 198.963C102.712 199.747 102.374 200.543 102.018 201.358C101.613 202.283 101.233 203.207 100.856 204.122L100.856 204.123L100.856 204.123L100.855 204.124L100.855 204.125L100.855 204.125C100.323 205.418 99.7989 206.691 99.2273 207.916C99.018 208.474 98.7738 208.997 98.5296 209.52C98.2855 210.044 98.0413 210.567 97.832 211.125C97.6227 211.683 97.4134 212.206 97.2042 212.729L97.2039 212.73L97.2028 212.733C96.9939 213.255 96.7851 213.777 96.5762 214.334C95.4251 216.991 94.3302 219.703 93.2559 222.365L93.2548 222.367C92.6365 223.899 92.025 225.414 91.4135 226.892C90.9953 228.007 90.5771 228.983 90.1589 229.959L90.1588 229.959L90.1587 229.959L90.1586 229.96L90.1585 229.96L90.1584 229.96L90.1583 229.96L90.1583 229.96L90.1582 229.961L90.1577 229.962C90.0879 230.241 89.9833 230.485 89.8786 230.729C89.774 230.973 89.6693 231.218 89.5996 231.497L89.3205 232.194L89.0414 232.892C88.8813 233.532 88.6753 234.127 88.4761 234.702L88.4759 234.702C88.3279 235.129 88.1836 235.546 88.0647 235.962C88.0254 236.119 87.986 236.265 87.9467 236.407C87.9163 236.516 87.8859 236.623 87.8554 236.729L87.8553 236.729C87.7856 236.974 87.7159 237.218 87.6461 237.497C87.5763 237.776 87.5066 238.02 87.4368 238.264C87.3671 238.508 87.2973 238.752 87.2275 239.031C86.2508 243.078 85.5532 246.845 85.1345 250.334C84.5764 253.822 84.2974 257.031 84.1578 259.961L84.1171 260.771L84.1134 260.843C83.9902 263.282 83.8788 265.486 83.8788 267.356V272.1C83.8788 270.984 83.8788 269.449 84.0183 267.356C84.0334 267.129 84.0486 266.897 84.0639 266.66L84.0951 266.176L84.0952 266.175C84.2132 264.342 84.348 262.245 84.5764 259.961C84.6155 259.57 84.6546 259.171 84.6945 258.764C84.9392 256.266 85.2128 253.472 85.6927 250.473C86.1113 246.985 86.8089 243.217 87.9252 239.31C88.0647 238.892 88.2042 238.473 88.3438 237.915C88.4136 237.706 88.4834 237.461 88.5532 237.217C88.6229 236.973 88.6926 236.729 88.7624 236.52C89.0414 235.543 89.46 234.566 89.8787 233.59L90.1577 232.892L90.4368 232.194C90.5763 231.915 90.681 231.671 90.7857 231.427C90.8903 231.183 90.9949 230.939 91.1344 230.66C91.553 229.543 91.9715 228.567 92.39 227.59L92.3902 227.59C94.2041 223.543 96.0181 219.357 97.832 215.171C98.0413 214.613 98.2855 214.09 98.5296 213.567C98.7738 213.044 99.018 212.52 99.2273 211.962C99.6459 210.846 100.064 209.869 100.623 208.753C101.111 207.706 101.599 206.625 102.088 205.544C102.576 204.462 103.064 203.381 103.553 202.334C104.04 201.291 104.527 200.213 105.014 199.134L105.014 199.134L105.014 199.133L105.015 199.132L105.015 199.132L105.015 199.131L105.015 199.131L105.016 199.13L105.018 199.125C105.506 198.044 105.995 196.962 106.483 195.916C106.692 195.358 106.936 194.835 107.181 194.311C107.425 193.788 107.669 193.265 107.878 192.707L108.297 191.87C108.436 191.73 108.576 191.451 108.715 191.172C108.855 190.893 108.995 190.649 109.134 190.404C109.274 190.16 109.413 189.916 109.553 189.637C109.832 189.149 110.076 188.626 110.32 188.102L110.32 188.102C110.564 187.579 110.808 187.056 111.088 186.567C111.227 186.288 111.367 186.044 111.506 185.8C111.646 185.556 111.785 185.312 111.925 185.033C112.064 184.753 112.204 184.509 112.343 184.265L112.344 184.264C112.483 184.02 112.623 183.776 112.762 183.498L116.111 177.637C117.227 175.684 118.343 173.87 119.459 172.056C120.576 170.242 121.692 168.428 122.808 166.754C123.954 165.035 125.063 163.353 126.136 161.726L126.143 161.715L126.144 161.714L126.151 161.704L126.157 161.695L126.157 161.694L126.159 161.691L126.167 161.679C127.173 160.154 128.146 158.677 129.087 157.266C131.041 154.335 132.854 151.545 134.389 149.173C134.995 148.237 135.579 147.323 136.132 146.456L136.133 146.456C136.982 145.126 137.76 143.908 138.436 142.894C140.184 140.162 141.333 138.372 141.75 137.723C141.947 137.772 142.145 137.821 142.343 137.87C149.599 139.684 157.552 141.917 165.645 144.987C168.595 146.105 171.544 147.372 174.548 148.68C174.031 149.728 173.185 151.453 172.063 153.777C170.11 157.824 167.459 163.544 164.529 170.661C164.424 170.933 164.318 171.207 164.212 171.483L164.206 171.497L164.206 171.498L164.206 171.498L164.206 171.498L164.206 171.498L164.206 171.499L164.206 171.499C162.9 174.888 161.502 178.516 160.343 182.381C159.087 186.707 157.971 191.172 157.133 195.916C156.296 200.66 155.878 205.683 155.738 210.706C155.598 215.729 155.878 220.892 156.436 225.915C156.994 230.938 157.691 236.101 158.389 240.985C159.087 246.008 159.924 250.892 160.901 255.496C161.13 256.798 161.402 258.057 161.67 259.298C161.89 260.318 162.107 261.326 162.296 262.333C162.854 264.566 163.412 266.798 163.831 268.891C164.681 272.534 165.636 276.071 166.514 279.318C166.645 279.803 166.774 280.281 166.901 280.751C167.877 284.379 168.854 287.728 169.831 290.658C170.252 291.711 170.594 292.765 170.916 293.758L170.916 293.759L170.922 293.777C170.963 293.903 171.004 294.027 171.044 294.151C171.105 294.338 171.165 294.523 171.226 294.705C171.645 295.96 172.063 297.076 172.482 298.193L172.482 298.193C172.983 299.796 173.484 301.039 173.881 302.026L173.881 302.026C174.038 302.414 174.178 302.762 174.296 303.077C173.877 301.96 173.319 300.286 172.621 298.193C172.414 297.362 172.129 296.531 171.824 295.643L171.824 295.642C171.719 295.337 171.612 295.025 171.505 294.705C171.087 293.449 170.668 292.054 170.249 290.519C169.502 288.17 168.837 285.659 168.128 282.984L168.125 282.975C167.908 282.156 167.687 281.322 167.459 280.472C166.689 277.505 166.006 274.45 165.274 271.173L165.273 271.171C165.076 270.289 164.875 269.39 164.668 268.473C164.11 266.381 163.692 264.15 163.274 261.919L163.274 261.919L163.274 261.918L163.273 261.918L163.273 261.917L163.273 261.916L163.273 261.916L163.273 261.915L163.273 261.915C162.854 259.682 162.436 257.45 162.017 255.077C161.18 250.333 160.482 245.45 159.784 240.566C159.087 235.543 158.529 230.52 158.11 225.497L157.831 221.729C157.831 221.102 157.796 220.474 157.761 219.846L157.761 219.846C157.726 219.218 157.691 218.59 157.691 217.962C157.552 215.45 157.552 212.939 157.691 210.427C157.831 205.544 158.529 200.66 159.366 196.055C160.343 191.451 161.459 186.986 162.854 182.939C164.249 178.893 165.645 175.126 167.18 171.637C169.829 165.329 172.478 160.048 174.406 156.206L174.653 155.712C174.77 155.48 174.883 155.254 174.993 155.033C176.212 152.758 177.1 151.051 177.629 150.021C177.727 150.064 177.825 150.107 177.924 150.149L184.203 153.079C186.296 154.056 188.249 155.172 190.342 156.428C197.534 160.644 204.836 165.521 212.248 170.472C213.177 171.092 214.107 171.714 215.039 172.335C219.558 175.398 224.118 178.545 228.697 181.731C228.685 181.767 228.672 181.805 228.658 181.844L228.627 181.932L228.601 182.005C228.455 182.416 228.263 182.957 228.155 183.498C228.1 183.77 228.024 184.043 227.944 184.333C227.819 184.784 227.682 185.275 227.597 185.87C227.178 187.684 227.039 189.916 226.899 192.428C226.76 194.939 226.76 197.869 226.899 200.939C227.178 207.218 228.155 214.334 229.55 222.008C230.248 225.915 231.085 229.822 232.062 233.729C232.899 237.636 234.015 241.682 235.132 245.589C235.411 246.566 235.725 247.543 236.039 248.52C236.353 249.496 236.666 250.473 236.946 251.45L237.364 252.985V253.124V253.264V253.403L237.504 253.822L237.783 254.519C237.992 255.008 238.166 255.461 238.341 255.915C238.515 256.368 238.69 256.822 238.899 257.31C240.434 261.077 242.248 264.705 244.201 268.054C245.178 269.728 246.155 271.403 247.131 272.938L250.062 277.542C252.015 280.472 253.968 283.263 255.782 285.775C258.201 289.123 260.31 292.1 262.067 294.581L262.067 294.581C262.945 295.821 263.736 296.937 264.433 297.914C263.446 296.433 262.21 294.633 260.779 292.547L260.777 292.545C259.376 290.503 257.787 288.189 256.061 285.635C255.315 284.453 254.514 283.244 253.693 282.007L253.693 282.006L253.692 282.006L253.691 282.004L253.69 282.003C252.671 280.466 251.624 278.886 250.62 277.263C249.782 275.728 248.806 274.193 247.829 272.659C246.852 271.124 245.876 269.449 245.038 267.775C243.224 264.287 241.55 260.798 240.015 257.031C239.773 256.547 239.578 256.017 239.376 255.467L239.376 255.467L239.376 255.467C239.228 255.065 239.076 254.653 238.899 254.24L238.62 253.543L238.48 253.124V252.985V252.845L238.062 251.31L236.387 245.45C235.271 241.543 234.294 237.496 233.457 233.59C232.75 230.29 232.143 226.99 231.551 223.775L231.546 223.75L231.537 223.702C231.433 223.135 231.329 222.57 231.225 222.008C229.969 214.474 229.132 207.358 228.992 201.218C228.992 198.148 228.992 195.358 229.132 192.846C229.196 192.266 229.253 191.708 229.308 191.172L229.308 191.171L229.308 191.171L229.308 191.17C229.49 189.389 229.647 187.854 229.969 186.567C230.047 186.096 230.17 185.669 230.287 185.261L230.287 185.261L230.287 185.261L230.288 185.261L230.288 185.261L230.288 185.261L230.288 185.261C230.379 184.944 230.466 184.639 230.527 184.335L230.527 184.335C230.625 183.943 230.723 183.552 230.82 183.209C233.881 185.343 236.948 187.49 240.016 189.637C244.73 192.937 249.434 196.237 254.111 199.519C266.044 207.892 277.803 216.143 289.131 223.962C292.246 226.112 295.324 228.225 298.356 230.293C298.404 230.458 298.435 230.661 298.471 230.894L298.471 230.895C298.527 231.261 298.595 231.704 298.758 232.194C298.898 233.031 299.177 234.148 299.596 235.264C299.735 235.822 299.875 236.38 300.154 237.078C300.293 237.636 300.572 238.334 300.851 239.031C301.409 240.427 302.107 241.961 302.805 243.496C303.013 244.12 303.298 244.666 303.603 245.249C303.707 245.45 303.814 245.655 303.921 245.868C303.991 246.078 304.095 246.287 304.2 246.496L304.2 246.496C304.305 246.706 304.409 246.915 304.479 247.124C304.619 247.333 304.723 247.543 304.828 247.752C304.933 247.961 305.037 248.171 305.177 248.38C306.014 249.915 306.991 251.589 308.107 253.264C308.413 253.722 308.708 254.181 309.002 254.637L309.002 254.638L309.002 254.638L309.003 254.638L309.003 254.639L309.003 254.639C309.78 255.846 310.545 257.034 311.456 258.147C312.572 259.682 313.828 261.217 315.084 262.752C316.339 264.287 317.735 265.542 319.13 266.798C320.525 267.914 321.921 269.031 323.316 270.007C323.977 270.595 324.676 271.105 325.353 271.598L325.353 271.599C325.963 272.043 326.554 272.475 327.083 272.938C328.2 273.775 329.176 274.751 330.014 275.589C330.621 276.196 331.081 276.803 331.501 277.356C331.66 277.567 331.814 277.769 331.967 277.961C332.089 278.144 332.212 278.301 332.322 278.443L332.322 278.443L332.323 278.443L332.323 278.443C332.464 278.624 332.586 278.781 332.665 278.937C332.804 279.217 332.944 279.496 333.083 279.635L333.362 280.193C333.362 280.193 333.223 279.914 333.083 279.496C332.944 279.356 332.804 279.077 332.665 278.798C332.525 278.519 332.386 278.24 332.107 277.821C331.548 276.984 330.99 276.147 330.153 275.31C329.316 274.472 328.339 273.496 327.223 272.519C326.107 271.682 324.851 270.705 323.456 269.589C322.2 268.612 320.804 267.496 319.409 266.24C318.014 265.124 316.758 263.728 315.502 262.194C314.246 260.659 313.13 259.124 312.014 257.45C310.898 255.915 309.781 254.24 308.805 252.566C308.539 252.11 308.273 251.665 308.01 251.225C307.307 250.046 306.623 248.901 306.014 247.682C305.944 247.473 305.84 247.264 305.735 247.055L305.735 247.054L305.735 247.054C305.63 246.845 305.526 246.636 305.456 246.426C305.386 246.217 305.281 246.008 305.177 245.799C305.072 245.589 304.968 245.38 304.898 245.171C304.791 244.957 304.684 244.752 304.579 244.552L304.579 244.552C304.274 243.968 303.989 243.422 303.782 242.799C303.55 242.162 303.295 241.55 303.045 240.951C302.693 240.106 302.352 239.29 302.107 238.473C302.044 238.314 301.98 238.162 301.918 238.014C301.708 237.514 301.517 237.058 301.409 236.52C301.13 235.822 300.991 235.264 300.851 234.706C300.779 234.417 300.707 234.138 300.637 233.869C300.437 233.094 300.257 232.397 300.154 231.776C300.117 231.665 300.085 231.557 300.057 231.452C311.739 239.402 322.733 246.684 332.665 252.984C345.641 261.077 356.804 267.496 364.897 270.984C368.943 272.798 372.432 273.775 374.804 274.193C372.432 273.775 369.083 272.658 365.036 270.845C356.943 267.217 345.92 260.659 333.083 252.287C322.89 245.639 311.641 237.847 299.615 229.331C299.596 229.2 299.596 229.125 299.596 229.125L299.405 229.182C296.354 227.021 293.253 224.813 290.108 222.566C288.916 221.708 287.719 220.844 286.516 219.976C287.021 219.807 287.66 219.599 288.433 219.357C288.991 219.218 289.549 219.078 290.247 218.799C290.455 218.747 290.701 218.676 290.965 218.6C291.409 218.471 291.902 218.329 292.34 218.241C292.673 218.15 293.012 218.053 293.359 217.953L293.36 217.953L293.361 217.953C294.615 217.593 295.973 217.204 297.503 216.985C297.855 216.926 298.258 216.843 298.679 216.755L298.682 216.755L298.682 216.755L298.686 216.754L298.687 216.754C299.262 216.634 299.871 216.508 300.433 216.427C300.851 216.288 301.409 216.148 301.968 216.148C302.247 216.148 302.525 216.113 302.804 216.078L302.805 216.078C303.084 216.043 303.363 216.009 303.642 216.009C303.921 216.009 304.2 215.974 304.479 215.939C304.758 215.904 305.037 215.869 305.316 215.869C305.595 215.73 305.874 215.73 306.154 215.73H306.991C307.619 215.73 308.212 215.695 308.805 215.66L308.805 215.66C309.398 215.625 309.991 215.59 310.619 215.59H311.595H312.572H314.386C315.642 215.59 316.897 215.59 318.153 215.73C319.549 215.869 320.804 216.009 322.06 216.148C322.696 216.275 323.304 216.374 323.895 216.469L323.896 216.469C324.601 216.584 325.284 216.694 325.967 216.846L326.944 216.985C327.223 217.125 327.641 217.264 327.921 217.264C328.2 217.404 328.514 217.474 328.827 217.543C329.141 217.613 329.455 217.683 329.734 217.823C329.825 217.845 329.919 217.868 330.016 217.891C330.515 218.011 331.081 218.147 331.548 218.381C331.827 218.52 332.141 218.625 332.455 218.729L332.455 218.729L332.456 218.73C332.769 218.834 333.083 218.939 333.362 219.078C335.734 220.195 338.106 221.311 340.199 222.427C342.525 223.627 344.73 224.868 346.813 226.041L346.814 226.041L346.816 226.042L346.817 226.043L346.82 226.044C348.609 227.051 350.309 228.008 351.92 228.846L354.432 230.101C355.269 230.52 356.106 230.939 356.804 231.218C357.996 231.76 359.02 232.133 359.941 232.469L359.941 232.469C360.205 232.566 360.461 232.659 360.711 232.752C360.508 232.665 360.286 232.572 360.051 232.473L360.05 232.473C359.153 232.096 358.048 231.631 356.943 231.078C356.487 230.896 356.032 230.654 355.537 230.391C355.274 230.252 355.001 230.107 354.711 229.962L352.199 228.706C351.317 228.191 350.396 227.648 349.439 227.083L349.431 227.078L349.428 227.076L349.422 227.073L349.422 227.073L349.421 227.072L349.421 227.072L349.419 227.071C346.748 225.494 343.796 223.751 340.618 222.008C338.525 220.753 336.292 219.636 333.92 218.52C333.362 218.381 332.665 218.102 332.106 217.823C331.827 217.683 331.513 217.578 331.2 217.474C330.886 217.369 330.572 217.264 330.293 217.125C329.595 216.846 329.037 216.706 328.339 216.567L328.339 216.567C328.06 216.427 327.781 216.288 327.362 216.288L326.386 216.148C325.758 216.009 325.095 215.904 324.432 215.799C323.769 215.695 323.107 215.59 322.479 215.45C321.851 215.381 321.188 215.311 320.525 215.241H320.525C319.862 215.171 319.2 215.102 318.572 215.032L318.192 214.994L318.191 214.994C316.946 214.868 315.806 214.753 314.665 214.753C313.967 214.613 313.409 214.613 312.712 214.613H311.735H310.758H307.13H306.293C306.014 214.753 305.735 214.753 305.456 214.753C305.177 214.753 304.898 214.788 304.619 214.823C304.34 214.857 304.061 214.892 303.781 214.892C303.502 214.892 303.223 214.927 302.944 214.962L302.944 214.962C302.665 214.997 302.386 215.032 302.107 215.032C301.549 215.032 300.991 215.032 300.433 215.171C299.316 215.45 298.34 215.59 297.363 215.73C295.41 216.009 293.596 216.427 292.061 216.846C291.224 217.125 290.526 217.264 289.828 217.404C289.427 217.484 289.071 217.611 288.736 217.73L288.735 217.73C288.488 217.819 288.251 217.903 288.014 217.962C286.618 218.398 285.604 218.726 285.04 218.909C271.052 208.804 256.372 198.105 241.692 187.406L241.69 187.404C233.555 181.475 225.419 175.546 217.284 169.886C217.325 169.866 217.368 169.845 217.411 169.824C217.83 169.545 218.527 169.266 219.225 168.987C219.475 168.886 219.743 168.768 220.023 168.645L220.024 168.645C220.523 168.425 221.06 168.189 221.597 168.01C221.674 167.984 221.753 167.958 221.833 167.932C221.962 167.89 222.094 167.848 222.229 167.805L222.229 167.805C222.908 167.587 223.648 167.35 224.388 167.033C224.944 166.795 225.545 166.602 226.165 166.402C226.635 166.252 227.116 166.097 227.597 165.917C227.998 165.837 228.354 165.71 228.689 165.59C228.937 165.502 229.174 165.418 229.411 165.359C229.648 165.299 229.885 165.215 230.132 165.127C230.468 165.007 230.823 164.881 231.225 164.801C233.736 164.103 236.527 163.405 239.457 162.708C240.553 162.499 241.688 162.271 242.847 162.037L242.848 162.037C244.789 161.647 246.797 161.243 248.806 160.894C252.015 160.336 255.364 159.777 258.852 159.219C259.688 159.08 260.559 158.941 261.43 158.801L261.43 158.801L261.43 158.801L261.433 158.801L261.433 158.801C262.306 158.661 263.178 158.522 264.015 158.382C264.991 158.243 265.829 158.103 266.666 157.963L269.317 157.405C270.991 156.987 272.805 156.568 274.48 156.289C276.294 155.871 277.968 155.591 279.642 155.312L280.898 155.033C281.107 155.033 281.317 154.998 281.526 154.964L281.526 154.964C281.735 154.929 281.945 154.894 282.154 154.894L284.665 154.475C286.34 154.196 288.014 153.917 289.689 153.778L289.692 153.777C291.365 153.638 293.038 153.498 294.572 153.359C294.991 153.359 295.375 153.324 295.758 153.289C296.142 153.254 296.526 153.219 296.944 153.219C297.293 153.219 297.677 153.185 298.061 153.15L298.061 153.15C298.444 153.115 298.828 153.08 299.177 153.08C299.526 153.08 299.909 153.045 300.293 153.01C300.677 152.975 301.06 152.94 301.409 152.94C302.246 152.801 302.944 152.801 303.642 152.801H307.828C309.231 152.801 310.596 152.84 311.88 152.877H311.88H311.88H311.88L311.881 152.877C313.022 152.909 314.099 152.94 315.083 152.94C316.2 153.08 317.176 153.08 318.153 153.08H318.153C318.572 153.08 318.99 153.115 319.409 153.15L319.409 153.15C319.828 153.185 320.246 153.219 320.665 153.219C320.287 153.144 319.868 153.109 319.409 153.071C319.02 153.039 318.601 153.004 318.153 152.94C317.681 152.94 317.209 152.908 316.721 152.874L316.721 152.874C316.199 152.838 315.66 152.801 315.083 152.801C312.851 152.661 310.479 152.522 307.828 152.522H303.642H301.409C300.712 152.661 299.874 152.661 299.177 152.661C298.34 152.801 297.642 152.801 296.805 152.801H296.805C295.968 152.801 295.27 152.801 294.433 152.94C293.595 153.01 292.793 153.08 291.991 153.15C291.189 153.219 290.386 153.289 289.549 153.359C288.712 153.429 287.875 153.533 287.038 153.638H287.038H287.038H287.037L287.037 153.638H287.037H287.037C286.2 153.743 285.363 153.847 284.526 153.917C284.107 153.987 283.689 154.022 283.27 154.057C282.852 154.091 282.433 154.126 282.014 154.196C281.805 154.196 281.596 154.231 281.386 154.266C281.177 154.301 280.968 154.336 280.759 154.336L279.503 154.615C278.666 154.754 277.793 154.894 276.921 155.033C276.049 155.173 275.177 155.312 274.34 155.452C273.503 155.591 272.631 155.766 271.759 155.94C270.887 156.115 270.015 156.289 269.177 156.429L266.666 156.987C265.689 157.126 264.852 157.266 264.015 157.405C262.34 157.545 260.526 157.824 258.852 158.103L257.938 158.217C254.873 158.599 251.724 158.991 248.806 159.498C245.457 160.056 242.248 160.615 239.318 161.173C236.387 161.731 233.457 162.429 230.946 163.126C230.382 163.351 229.819 163.486 229.329 163.603L229.329 163.603C229.212 163.631 229.099 163.657 228.992 163.684C228.591 163.765 228.235 163.891 227.9 164.011C227.652 164.099 227.415 164.183 227.178 164.242C225.922 164.521 224.806 164.801 223.829 165.219C223.067 165.41 222.369 165.666 221.736 165.898L221.736 165.898C221.443 166.005 221.164 166.108 220.899 166.196C220.292 166.499 219.685 166.73 219.131 166.94C218.921 167.019 218.719 167.096 218.527 167.173C217.69 167.452 217.132 167.731 216.574 168.01C216.242 168.093 215.959 168.225 215.696 168.348C215.577 168.404 215.462 168.458 215.348 168.505C212.997 166.836 210.612 165.208 208.246 163.592C207.062 162.784 205.882 161.978 204.714 161.172C200.668 158.382 196.482 155.731 192.435 153.219L192.435 153.219C190.342 151.963 188.249 150.707 186.156 149.731C184.064 148.615 181.971 147.638 179.878 146.661L179.877 146.661C175.691 144.708 171.505 142.894 167.319 141.359C165.964 140.83 164.616 140.317 163.276 139.821L165.924 137.173L165.924 137.173C167.18 135.917 168.715 134.382 170.389 132.568C171.179 131.778 172.032 130.894 172.932 129.961L172.932 129.961C173.939 128.918 175.005 127.813 176.11 126.708C178.203 124.615 180.435 122.383 182.947 120.011L182.95 120.008C184.205 118.892 185.459 117.777 186.854 116.522L186.854 116.522L186.855 116.521C188.25 115.405 189.645 114.289 191.179 113.174C191.993 112.523 192.901 111.919 193.822 111.308C194.48 110.871 195.144 110.43 195.784 109.964C196.342 109.639 196.9 109.298 197.458 108.957L197.458 108.957C198.574 108.274 199.691 107.592 200.807 107.034C201.016 106.895 201.225 106.79 201.435 106.685C201.644 106.581 201.853 106.476 202.063 106.336L202.76 105.918L203.458 105.639C203.876 105.43 204.33 105.22 204.783 105.011L204.783 105.011L204.785 105.01C205.238 104.801 205.691 104.592 206.109 104.383C206.597 104.174 207.051 103.999 207.504 103.825C207.958 103.65 208.411 103.476 208.9 103.267C209.388 103.057 209.841 102.883 210.295 102.709C210.748 102.534 211.202 102.36 211.69 102.15C212.597 101.802 213.539 101.453 214.481 101.104C215.423 100.755 216.365 100.406 217.272 100.058C218.179 99.7087 219.12 99.3947 220.062 99.0808L220.062 99.0807L220.063 99.0806C221.004 98.7667 221.946 98.4529 222.853 98.1041C223.341 97.9645 223.795 97.7901 224.248 97.6157C224.702 97.4413 225.155 97.2669 225.644 97.1273C226.62 96.7088 227.457 96.4297 228.434 96.1506C230.248 95.453 232.062 94.8948 233.876 94.3367C235.283 93.9036 236.649 93.4705 237.989 93.0456L237.99 93.0451L237.991 93.045C240.103 92.3749 242.152 91.7251 244.201 91.1275C245.736 90.5693 247.41 90.0112 248.945 89.5926C249.863 89.3424 250.78 89.0423 251.668 88.752L251.669 88.7518C252.266 88.5565 252.849 88.3656 253.41 88.1973C254.464 87.7759 255.517 87.4341 256.511 87.1117C256.833 87.0071 257.149 86.9045 257.457 86.802L257.457 86.8018C258.713 86.3833 259.969 85.9647 261.085 85.5462C261.566 85.3659 262.046 85.2114 262.516 85.0606L262.516 85.0605C263.137 84.8612 263.738 84.6682 264.294 84.4299C264.864 84.267 265.387 84.0565 265.89 83.854C266.248 83.7097 266.597 83.5694 266.945 83.4532C270.294 82.1974 272.108 81.4998 272.108 81.4998C272.108 81.4998 270.294 82.1974 266.945 83.3137C266.623 83.4212 266.279 83.5493 265.923 83.6823C265.355 83.8945 264.755 84.1188 264.154 84.2904C263.942 84.351 263.724 84.4115 263.5 84.4735C262.693 84.6971 261.819 84.9394 260.945 85.2671C259.689 85.5462 258.434 85.9648 257.178 86.3834L257.178 86.3834L252.992 87.6392C251.596 88.1973 250.062 88.6159 248.527 89.0345C247.69 89.2438 246.887 89.488 246.085 89.7321C245.283 89.9763 244.48 90.2205 243.643 90.4298C240.294 91.4065 236.806 92.3833 233.178 93.36C232.062 93.732 230.822 94.1041 229.582 94.4761L229.581 94.4762C228.961 94.6623 228.341 94.8483 227.736 95.0344C227.249 95.1737 226.796 95.3131 226.343 95.4525L226.342 95.4526L226.341 95.4529L226.341 95.4531L226.34 95.4532C225.887 95.5927 225.434 95.7321 224.946 95.8716C224.109 96.1506 223.132 96.4296 222.156 96.7087L222.155 96.7087C220.202 97.2669 218.388 97.825 216.434 98.5227C214.891 98.9635 213.436 99.4914 211.929 100.038C211.529 100.183 211.124 100.329 210.714 100.476C210.23 100.718 209.7 100.913 209.15 101.116C208.748 101.264 208.335 101.416 207.923 101.592C207.439 101.834 206.909 102.029 206.359 102.232L206.359 102.232C205.957 102.38 205.545 102.532 205.132 102.709C204.644 102.918 204.19 103.127 203.737 103.337L203.736 103.337C203.283 103.546 202.83 103.755 202.342 103.964L201.644 104.243L200.946 104.523C200.749 104.621 200.568 104.703 200.399 104.779L200.399 104.779C200.092 104.918 199.821 105.04 199.551 105.22C197.737 106.197 196.063 107.173 194.389 108.15L194.388 108.15C193.753 108.574 193.118 108.977 192.491 109.376L192.49 109.376C191.463 110.028 190.457 110.667 189.505 111.36C187.97 112.476 186.435 113.592 185.04 114.708C184.284 115.388 183.529 116.028 182.795 116.648L182.794 116.649C182.173 117.174 181.569 117.685 180.993 118.197C178.518 120.411 176.286 122.504 174.184 124.475L173.738 124.894L173.737 124.895L173.735 124.897L173.735 124.897C171.643 126.989 169.69 128.941 167.877 130.615C166.73 131.857 165.649 132.904 164.678 133.843L164.678 133.843C164.231 134.275 163.808 134.685 163.412 135.08C162.693 135.799 162.065 136.381 161.529 136.878L161.529 136.879L161.529 136.879C161.129 137.249 160.78 137.573 160.482 137.871C160.183 138.17 159.935 138.392 159.75 138.548C154.197 136.6 148.798 134.98 143.599 133.824C139.449 132.902 135.425 132.191 131.599 131.669V128.243C131.599 126.917 131.703 125.382 131.821 123.639V123.639L131.834 123.452C131.849 123.238 131.863 123.021 131.878 122.801C131.878 121.685 132.017 120.569 132.157 119.453L132.17 119.35C132.181 119.261 132.192 119.171 132.203 119.08C132.329 118.061 132.467 116.943 132.715 115.825C132.855 115.128 132.959 114.465 133.064 113.803L133.064 113.802L133.064 113.801C133.169 113.138 133.273 112.476 133.413 111.778L133.831 109.685L134.25 107.592C134.479 106.331 134.803 105.164 135.143 103.937L135.143 103.937L135.143 103.936C135.217 103.67 135.292 103.401 135.366 103.127C135.529 102.721 135.644 102.315 135.767 101.881L135.767 101.88L135.767 101.88C135.855 101.569 135.948 101.244 136.064 100.895C136.203 100.476 136.308 100.093 136.413 99.7088C136.517 99.3251 136.622 98.9414 136.762 98.5229C137.738 95.4532 138.855 92.2439 140.11 89.0347L140.111 89.0339C141.506 85.8249 142.901 82.616 144.436 79.5465C146.11 76.4768 147.785 73.4071 149.599 70.4769C149.777 70.2094 149.954 69.943 150.13 69.6779C151.886 67.0395 153.557 64.5268 155.459 62.2445C155.598 61.9655 155.877 61.5469 156.157 61.2678C156.436 60.8492 156.715 60.5702 156.994 60.2911C157.273 60.012 157.517 59.6981 157.761 59.3841C158.005 59.0702 158.25 58.7562 158.529 58.4772C158.808 58.1981 159.052 57.919 159.296 57.64C159.54 57.3609 159.784 57.0819 160.063 56.8028L160.901 55.9656L161.738 55.1284L163.273 53.5936C163.691 53.175 164.249 52.6168 164.808 52.1982C165.481 51.525 166.22 50.9181 166.935 50.3317C167.257 50.0674 167.574 49.8073 167.877 49.5471C168.156 49.338 168.4 49.1637 168.644 48.9894L168.645 48.9891L168.645 48.9888C168.889 48.8145 169.133 48.6401 169.412 48.4309C169.622 48.2733 169.832 48.1354 170.035 48.0025C170.371 47.7824 170.686 47.5756 170.947 47.3146C171.924 46.6169 172.9 45.9193 173.738 45.3612C173.999 45.2002 174.255 45.0421 174.505 44.8874L174.514 44.882L174.514 44.8818C175.996 43.9658 177.29 43.1664 178.482 42.5705C179.107 42.2579 179.676 42.0013 180.177 41.7756L180.177 41.7755C180.794 41.4976 181.306 41.2666 181.691 41.0357C182.389 40.6171 182.807 40.4775 182.807 40.4775C182.807 40.4775 182.389 40.6171 181.691 40.8961C181.598 40.9331 181.499 40.9726 181.392 41.0148L181.391 41.015L181.391 41.015C180.692 41.2913 179.692 41.6865 178.482 42.2915L178.481 42.2916L178.481 42.2917C177.086 42.9893 175.412 43.8264 173.598 44.9426C172.621 45.5007 171.645 46.0588 170.668 46.7565C170.389 46.9658 170.145 47.1402 169.9 47.3146C169.656 47.489 169.412 47.6634 169.133 47.8727C168.715 48.1516 168.157 48.5699 167.599 48.9882L167.598 48.989C167.162 49.3626 166.699 49.7361 166.22 50.1221C165.625 50.6011 165.007 51.0992 164.389 51.6401C164.11 51.8494 163.831 52.0936 163.552 52.3378C163.273 52.5819 162.994 52.8261 162.715 53.0354C162.435 53.3145 162.156 53.5587 161.877 53.8029C161.598 54.047 161.319 54.2912 161.04 54.5703L160.203 55.4075L159.366 56.2447L157.691 57.919C157.412 58.1981 157.133 58.5121 156.854 58.826C156.575 59.14 156.296 59.4539 156.017 59.733C155.738 60.1516 155.459 60.4306 155.18 60.7097C155.04 60.8492 154.901 61.0237 154.761 61.1981L154.761 61.1983C154.622 61.3727 154.482 61.547 154.343 61.6864C152.25 64.198 150.157 66.8491 148.203 69.7793C146.25 72.7094 144.436 75.7792 142.761 78.8489C141.087 81.9186 139.552 85.1278 138.157 88.337C136.762 91.5463 135.506 94.616 134.39 97.8252C134.25 98.2438 134.11 98.6275 133.971 99.0112C133.831 99.3949 133.692 99.7787 133.552 100.197C133.413 101.034 133.134 101.872 132.855 102.569C132.645 103.337 132.436 104.069 132.227 104.801C132.018 105.534 131.808 106.267 131.599 107.034C131.52 107.506 131.398 107.932 131.28 108.34C131.189 108.657 131.102 108.962 131.041 109.267C130.762 109.964 130.622 110.662 130.483 111.36L130.482 111.362C130.203 112.757 129.924 114.151 129.645 115.406C129.366 116.662 129.087 117.918 128.948 119.174C128.808 120.428 128.669 121.544 128.53 122.659L128.529 122.662C128.311 124.295 128.179 125.844 128.064 127.175L128.064 127.176C128.032 127.55 128.002 127.907 127.971 128.243C127.865 129.511 127.84 130.459 127.834 131.208ZM362.106 233.311C361.936 233.254 361.767 233.175 361.588 233.091C361.325 232.968 361.043 232.835 360.711 232.752C361.269 233.032 361.687 233.171 362.106 233.311ZM362.106 233.311C362.524 233.45 362.943 233.59 363.222 233.59C363.071 233.514 362.879 233.479 362.668 233.441C362.49 233.409 362.298 233.375 362.106 233.311ZM374.804 274.193C375.313 274.257 375.793 274.35 376.218 274.432C376.724 274.529 377.151 274.612 377.455 274.612C376.897 274.472 376.059 274.333 374.804 274.193ZM47.5989 193.834C47.5014 194.074 47.3882 194.28 47.2942 194.451C47.267 194.5 47.2414 194.547 47.2182 194.59C47.2054 194.614 47.1933 194.638 47.1821 194.66C47.2739 194.385 47.4261 194.109 47.5989 193.834Z" fill="#EFE0DE"/>
</g>
</svg>
