<svg width="159" height="1746" viewBox="0 0 159 1746" fill="none" xmlns="http://www.w3.org/2000/svg">
<path opacity="0.5" d="M143 227C174 128 154.934 -34.3436 222.5 7.49993C379.152 104.515 302.689 473.943 302.689 566.8C302.689 682.871 352.5 1130 269.5 1246.5C186.5 1363 9.50809 1138 104 954.5C174.152 818.269 70.0002 827 47 676C30.018 564.511 158.277 511.055 115.5 398C87.5 324 125.308 283.5 143 227Z" fill="#DDECF2"/>
<path d="M161 30.5C143.5 259.5 5.60976 258.585 71.5 332.5C149.5 420 -64.9001 544.715 71.5 676.5C204.5 805 -45.3486 894.569 8.57436 917.354C62.4973 940.138 103.817 971.798 117 1016C151 1130 -11.8964 1308.5 174 1745.5" stroke="#BBDAE5"/>
</svg>
