<svg width="28" height="28" viewBox="0 0 28 28" fill="none" xmlns="http://www.w3.org/2000/svg">
<path fill-rule="evenodd" clip-rule="evenodd" d="M26.4863 13.6347C26.4863 20.6127 20.8295 26.2695 13.8515 26.2695C6.87356 26.2695 1.2168 20.6127 1.2168 13.6347C1.2168 6.65676 6.87356 1 13.8515 1C20.8295 1 26.4863 6.65676 26.4863 13.6347ZM27.4863 13.6347C27.4863 21.165 21.3818 27.2695 13.8515 27.2695C6.32127 27.2695 0.216797 21.165 0.216797 13.6347C0.216797 6.10448 6.32127 0 13.8515 0C21.3818 0 27.4863 6.10448 27.4863 13.6347ZM20.9869 6.47164C21.7707 6.1828 22.6103 6.85202 22.3934 7.71999L22.3932 7.72076L18.9908 21.2427L18.9902 21.2452C18.6998 22.3746 17.3633 22.876 16.4121 22.1546L16.412 22.1545L16.4117 22.1543L13.0007 19.5707L10.596 21.6151C10.4445 21.7439 10.2312 21.7707 10.0526 21.6834C9.94431 21.6305 9.86127 21.5417 9.81457 21.4358C9.80156 21.4128 9.7902 21.3885 9.7807 21.3629L7.95538 16.4508L3.73938 15.038L3.72728 15.034L3.72734 15.0338C2.83914 14.7108 2.71918 13.4124 3.70077 13.0518L20.9819 6.47351L20.9869 6.47161L20.9869 6.47164ZM12.1842 18.9523L10.9122 17.9888L10.8209 20.1114L12.1842 18.9523ZM13.2941 18.52C13.3275 18.5451 13.3573 18.574 13.3831 18.6059L17.0159 21.3574L17.0162 21.3577C17.3803 21.634 17.9029 21.4552 18.0214 20.9974L18.0217 20.9962L21.4232 7.47751C21.4291 7.4539 21.426 7.44207 21.4246 7.43761C21.4226 7.43158 21.4185 7.42466 21.411 7.41811C21.4032 7.41142 21.3931 7.40626 21.3815 7.40407C21.3714 7.40216 21.3561 7.40162 21.3343 7.40937L21.3327 7.40996L4.05344 13.9876L4.04649 13.9902L4.04647 13.9902C4.03228 13.9953 4.02506 14.0003 4.02205 14.0027C4.01898 14.0051 4.01765 14.0069 4.01692 14.008C4.01541 14.0103 4.01215 14.017 4.01247 14.029C4.01278 14.0411 4.01675 14.0533 4.02365 14.0631C4.02881 14.0705 4.03948 14.0824 4.06516 14.0925L8.30697 15.514L18.2712 9.52966C18.4932 9.39631 18.7803 9.45458 18.9327 9.66392C19.0852 9.87327 19.0526 10.1644 18.8576 10.3348L11.2473 16.9846L13.2941 18.52ZM9.87829 18.7547L9.95374 17.0001C9.95766 16.8613 10.0192 16.7297 10.1245 16.6377L13.9635 13.2833L8.96146 16.2874L9.87829 18.7547Z" fill="white"/>
</svg>
